<svg width="94" height="16" viewBox="0 0 94 16" fill="none" xmlns="http://www.w3.org/2000/svg">
<path d="M10.5 8.4375H3.5C3.26083 8.4375 3.0625 8.23917 3.0625 8C3.0625 7.76083 3.26083 7.5625 3.5 7.5625H10.5C10.7392 7.5625 10.9375 7.76083 10.9375 8C10.9375 8.23917 10.7392 8.4375 10.5 8.4375Z" fill="#333333"/>
<path d="M7 11.9375C6.76083 11.9375 6.5625 11.7392 6.5625 11.5V4.5C6.5625 4.26083 6.76083 4.0625 7 4.0625C7.23917 4.0625 7.4375 4.26083 7.4375 4.5V11.5C7.4375 11.7392 7.23917 11.9375 7 11.9375Z" fill="#333333"/>
<path d="M19.368 13H18.144L21.312 4.324H22.62L25.8 13H24.564L23.784 10.84H20.136L19.368 13ZM21.816 6.196L20.496 9.82H23.436L22.104 6.196C22.08 6.108 22.052 6.02 22.02 5.932C21.988 5.836 21.968 5.756 21.96 5.692C21.944 5.756 21.924 5.836 21.9 5.932C21.876 6.02 21.848 6.108 21.816 6.196ZM28.8789 13.144C28.3109 13.144 27.8229 13.016 27.4149 12.76C27.0069 12.496 26.6909 12.132 26.4669 11.668C26.2509 11.204 26.1429 10.676 26.1429 10.084C26.1429 9.484 26.2549 8.952 26.4789 8.488C26.7029 8.016 27.0229 7.644 27.4389 7.372C27.8549 7.1 28.3509 6.964 28.9269 6.964C29.3829 6.964 29.7869 7.06 30.1389 7.252C30.4989 7.436 30.7789 7.712 30.9789 8.08V4.168H32.0949V13H31.0869L30.9909 11.932C30.7989 12.324 30.5149 12.624 30.1389 12.832C29.7709 13.04 29.3509 13.144 28.8789 13.144ZM29.1069 12.124C29.4909 12.124 29.8189 12.036 30.0909 11.86C30.3709 11.684 30.5869 11.44 30.7389 11.128C30.8909 10.816 30.9669 10.456 30.9669 10.048C30.9669 9.64 30.8909 9.284 30.7389 8.98C30.5869 8.668 30.3709 8.424 30.0909 8.248C29.8189 8.072 29.4909 7.984 29.1069 7.984C28.7229 7.984 28.3949 8.076 28.1229 8.26C27.8509 8.436 27.6429 8.68 27.4989 8.992C27.3549 9.296 27.2829 9.648 27.2829 10.048C27.2829 10.456 27.3549 10.816 27.4989 11.128C27.6429 11.44 27.8509 11.684 28.1229 11.86C28.3949 12.036 28.7229 12.124 29.1069 12.124ZM36.0742 13.144C35.5063 13.144 35.0183 13.016 34.6103 12.76C34.2023 12.496 33.8863 12.132 33.6623 11.668C33.4463 11.204 33.3383 10.676 33.3383 10.084C33.3383 9.484 33.4503 8.952 33.6743 8.488C33.8983 8.016 34.2183 7.644 34.6343 7.372C35.0503 7.1 35.5463 6.964 36.1223 6.964C36.5783 6.964 36.9823 7.06 37.3343 7.252C37.6943 7.436 37.9743 7.712 38.1743 8.08V4.168H39.2903V13H38.2823L38.1863 11.932C37.9943 12.324 37.7103 12.624 37.3343 12.832C36.9663 13.04 36.5463 13.144 36.0742 13.144ZM36.3023 12.124C36.6863 12.124 37.0143 12.036 37.2863 11.86C37.5663 11.684 37.7823 11.44 37.9343 11.128C38.0863 10.816 38.1623 10.456 38.1623 10.048C38.1623 9.64 38.0863 9.284 37.9343 8.98C37.7823 8.668 37.5663 8.424 37.2863 8.248C37.0143 8.072 36.6863 7.984 36.3023 7.984C35.9183 7.984 35.5903 8.076 35.3183 8.26C35.0463 8.436 34.8383 8.68 34.6943 8.992C34.5503 9.296 34.4783 9.648 34.4783 10.048C34.4783 10.456 34.5503 10.816 34.6943 11.128C34.8383 11.44 35.0463 11.684 35.3183 11.86C35.5903 12.036 35.9183 12.124 36.3023 12.124ZM47.9908 13.132C47.1668 13.132 46.4468 12.948 45.8308 12.58C45.2148 12.204 44.7348 11.684 44.3908 11.02C44.0468 10.348 43.8748 9.564 43.8748 8.668C43.8748 7.772 44.0508 6.988 44.4028 6.316C44.7548 5.644 45.2428 5.12 45.8668 4.744C46.4988 4.368 47.2268 4.18 48.0508 4.18C48.7068 4.18 49.2988 4.304 49.8268 4.552C50.3548 4.792 50.7948 5.132 51.1468 5.572C51.4988 6.012 51.7268 6.528 51.8308 7.12H50.5708C50.4108 6.552 50.1028 6.108 49.6468 5.788C49.1908 5.468 48.6468 5.308 48.0148 5.308C47.4308 5.308 46.9188 5.448 46.4788 5.728C46.0468 6 45.7108 6.388 45.4708 6.892C45.2308 7.388 45.1108 7.976 45.1108 8.656C45.1108 9.328 45.2308 9.916 45.4708 10.42C45.7108 10.924 46.0508 11.316 46.4908 11.596C46.9308 11.868 47.4388 12.004 48.0148 12.004C48.6548 12.004 49.2068 11.848 49.6708 11.536C50.1428 11.216 50.4588 10.788 50.6188 10.252H51.8668C51.7468 10.828 51.5028 11.332 51.1348 11.764C50.7748 12.196 50.3228 12.532 49.7788 12.772C49.2428 13.012 48.6468 13.132 47.9908 13.132ZM54.7156 13.144C54.0916 13.144 53.5996 12.98 53.2396 12.652C52.8876 12.324 52.7116 11.896 52.7116 11.368C52.7116 10.832 52.9036 10.404 53.2876 10.084C53.6716 9.756 54.2076 9.564 54.8956 9.508L56.7436 9.364V9.196C56.7436 8.868 56.6836 8.608 56.5636 8.416C56.4436 8.216 56.2796 8.076 56.0716 7.996C55.8636 7.908 55.6276 7.864 55.3636 7.864C54.8916 7.864 54.5236 7.964 54.2596 8.164C54.0036 8.356 53.8756 8.632 53.8756 8.992H52.8916C52.8916 8.584 52.9956 8.228 53.2036 7.924C53.4116 7.62 53.7036 7.384 54.0796 7.216C54.4636 7.048 54.9076 6.964 55.4116 6.964C55.8996 6.964 56.3236 7.052 56.6836 7.228C57.0516 7.396 57.3356 7.656 57.5356 8.008C57.7436 8.352 57.8476 8.788 57.8476 9.316V13H56.8876L56.7676 12.052C56.6156 12.388 56.3516 12.656 55.9756 12.856C55.6076 13.048 55.1876 13.144 54.7156 13.144ZM55.0396 12.268C55.5756 12.268 55.9956 12.108 56.2996 11.788C56.6036 11.46 56.7556 11.02 56.7556 10.468V10.156L55.2556 10.276C54.7596 10.324 54.3996 10.44 54.1756 10.624C53.9596 10.808 53.8516 11.044 53.8516 11.332C53.8516 11.644 53.9556 11.88 54.1636 12.04C54.3796 12.192 54.6716 12.268 55.0396 12.268ZM58.692 7.132H62.124V8.08H58.692V7.132ZM60.972 13H59.844V5.296H60.972V13ZM65.6097 13.144C65.0417 13.144 64.5377 13.016 64.0977 12.76C63.6577 12.496 63.3137 12.136 63.0657 11.68C62.8177 11.216 62.6937 10.68 62.6937 10.072C62.6937 9.456 62.8137 8.916 63.0537 8.452C63.3017 7.988 63.6377 7.624 64.0617 7.36C64.4937 7.096 64.9937 6.964 65.5617 6.964C66.1217 6.964 66.6057 7.084 67.0137 7.324C67.4297 7.564 67.7497 7.9 67.9737 8.332C68.2057 8.764 68.3217 9.272 68.3217 9.856V10.276L63.2937 10.288L63.3177 9.532H67.1937C67.1937 9.044 67.0457 8.652 66.7497 8.356C66.4537 8.06 66.0577 7.912 65.5617 7.912C65.1857 7.912 64.8617 7.996 64.5897 8.164C64.3257 8.324 64.1217 8.564 63.9777 8.884C63.8417 9.196 63.7737 9.572 63.7737 10.012C63.7737 10.716 63.9337 11.26 64.2537 11.644C64.5737 12.02 65.0337 12.208 65.6337 12.208C66.0737 12.208 66.4337 12.12 66.7137 11.944C66.9937 11.768 67.1817 11.512 67.2777 11.176H68.3337C68.1897 11.8 67.8817 12.284 67.4097 12.628C66.9377 12.972 66.3377 13.144 65.6097 13.144ZM69.2096 9.916C69.2096 9.364 69.3216 8.868 69.5456 8.428C69.7696 7.98 70.0896 7.624 70.5056 7.36C70.9216 7.096 71.4136 6.964 71.9816 6.964C72.5096 6.964 72.9616 7.092 73.3376 7.348C73.7136 7.596 73.9816 7.944 74.1416 8.392L73.9976 8.548L74.1176 7.132H75.1256V12.76C75.1256 13.376 75.0056 13.908 74.7656 14.356C74.5256 14.812 74.1856 15.164 73.7456 15.412C73.3056 15.66 72.7856 15.784 72.1856 15.784C71.3856 15.784 70.7296 15.572 70.2176 15.148C69.7056 14.724 69.3936 14.14 69.2816 13.396H70.4096C70.4816 13.828 70.6736 14.164 70.9856 14.404C71.2976 14.644 71.6976 14.764 72.1856 14.764C72.7376 14.764 73.1776 14.596 73.5056 14.26C73.8416 13.932 74.0096 13.488 74.0096 12.928V11.272L74.1536 11.428C74.0016 11.868 73.7256 12.216 73.3256 12.472C72.9256 12.72 72.4616 12.844 71.9336 12.844C71.3736 12.844 70.8896 12.716 70.4816 12.46C70.0736 12.196 69.7576 11.844 69.5336 11.404C69.3176 10.964 69.2096 10.468 69.2096 9.916ZM70.3376 9.892C70.3376 10.26 70.4096 10.592 70.5536 10.888C70.7056 11.184 70.9136 11.42 71.1776 11.596C71.4496 11.772 71.7656 11.86 72.1256 11.86C72.5096 11.86 72.8376 11.776 73.1096 11.608C73.3816 11.44 73.5896 11.208 73.7336 10.912C73.8856 10.616 73.9616 10.276 73.9616 9.892C73.9616 9.508 73.8896 9.172 73.7456 8.884C73.6016 8.596 73.3936 8.368 73.1216 8.2C72.8496 8.032 72.5216 7.948 72.1376 7.948C71.7616 7.948 71.4376 8.036 71.1656 8.212C70.9016 8.388 70.6976 8.624 70.5536 8.92C70.4096 9.208 70.3376 9.532 70.3376 9.892ZM76.3695 10.06C76.3695 9.46 76.5015 8.928 76.7655 8.464C77.0295 8 77.3895 7.636 77.8455 7.372C78.3095 7.108 78.8375 6.976 79.4295 6.976C80.0215 6.976 80.5455 7.108 81.0015 7.372C81.4575 7.636 81.8175 8 82.0815 8.464C82.3455 8.928 82.4775 9.46 82.4775 10.06C82.4775 10.66 82.3455 11.192 82.0815 11.656C81.8175 12.12 81.4575 12.484 81.0015 12.748C80.5455 13.012 80.0215 13.144 79.4295 13.144C78.8375 13.144 78.3095 13.012 77.8455 12.748C77.3895 12.484 77.0295 12.12 76.7655 11.656C76.5015 11.192 76.3695 10.66 76.3695 10.06ZM77.5095 10.06C77.5095 10.468 77.5895 10.828 77.7495 11.14C77.9175 11.452 78.1455 11.696 78.4335 11.872C78.7215 12.048 79.0535 12.136 79.4295 12.136C79.8055 12.136 80.1375 12.048 80.4255 11.872C80.7135 11.696 80.9375 11.452 81.0975 11.14C81.2655 10.828 81.3495 10.468 81.3495 10.06C81.3495 9.644 81.2655 9.284 81.0975 8.98C80.9375 8.668 80.7135 8.424 80.4255 8.248C80.1375 8.072 79.8055 7.984 79.4295 7.984C79.0535 7.984 78.7215 8.072 78.4335 8.248C78.1455 8.424 77.9175 8.668 77.7495 8.98C77.5895 9.284 77.5095 9.644 77.5095 10.06ZM87.0862 7.084V8.116H86.5822C86.0462 8.116 85.6222 8.272 85.3102 8.584C85.0062 8.888 84.8542 9.324 84.8542 9.892V13H83.7262V7.144H84.7822L84.8782 8.32H84.7702C84.8502 7.936 85.0422 7.624 85.3462 7.384C85.6502 7.136 86.0302 7.012 86.4862 7.012C86.5902 7.012 86.6862 7.02 86.7742 7.036C86.8702 7.044 86.9742 7.06 87.0862 7.084ZM88.7879 7.132L90.8519 12.844L90.1559 13.804L87.5999 7.132H88.7879ZM87.7559 15.628V14.704H88.5119C88.6959 14.704 88.8639 14.684 89.0159 14.644C89.1679 14.612 89.3079 14.536 89.4359 14.416C89.5639 14.304 89.6719 14.124 89.7599 13.876L92.2319 7.132H93.3959L90.6239 14.32C90.4239 14.824 90.1719 15.188 89.8679 15.412C89.5639 15.636 89.1879 15.748 88.7399 15.748C88.5559 15.748 88.3839 15.736 88.2239 15.712C88.0639 15.696 87.9079 15.668 87.7559 15.628Z" fill="#333333"/>
</svg>
