<svg width="24" height="24" viewBox="0 0 24 24" fill="none" xmlns="http://www.w3.org/2000/svg">
<rect width="24" height="24" rx="5.33333" fill="#EFF4FD"/>
<path d="M18.6666 10.168H5.33325C5.05992 10.168 4.83325 9.9413 4.83325 9.66797C4.83325 9.39464 5.05992 9.16797 5.33325 9.16797H18.6666C18.9399 9.16797 19.1666 9.39464 19.1666 9.66797C19.1666 9.9413 18.9399 10.168 18.6666 10.168Z" fill="#5795F7"/>
<path d="M9.33333 15.501H8C7.72667 15.501 7.5 15.2743 7.5 15.001C7.5 14.7276 7.72667 14.501 8 14.501H9.33333C9.60667 14.501 9.83333 14.7276 9.83333 15.001C9.83333 15.2743 9.60667 15.501 9.33333 15.501Z" fill="#5795F7"/>
<path d="M13.6667 15.501H11C10.7267 15.501 10.5 15.2743 10.5 15.001C10.5 14.7276 10.7267 14.501 11 14.501H13.6667C13.94 14.501 14.1667 14.7276 14.1667 15.001C14.1667 15.2743 13.94 15.501 13.6667 15.501Z" fill="#5795F7"/>
<path d="M15.7066 18.1673H8.29325C5.63992 18.1673 4.83325 17.3673 4.83325 14.7407V9.26065C4.83325 6.63398 5.63992 5.83398 8.29325 5.83398H15.6999C18.3533 5.83398 19.1599 6.63398 19.1599 9.26065V14.734C19.1666 17.3673 18.3599 18.1673 15.7066 18.1673ZM8.29325 6.83398C6.19992 6.83398 5.83325 7.19398 5.83325 9.26065V14.734C5.83325 16.8007 6.19992 17.1607 8.29325 17.1607H15.6999C17.7933 17.1607 18.1599 16.8007 18.1599 14.734V9.26065C18.1599 7.19398 17.7933 6.83398 15.6999 6.83398H8.29325Z" fill="#5795F7"/>
</svg>
