<svg width="195" height="44" viewBox="0 0 195 44" fill="none" xmlns="http://www.w3.org/2000/svg">
<path d="M28 22.75H16C15.59 22.75 15.25 22.41 15.25 22C15.25 21.59 15.59 21.25 16 21.25H28C28.41 21.25 28.75 21.59 28.75 22C28.75 22.41 28.41 22.75 28 22.75Z" fill="white"/>
<path d="M22 28.75C21.59 28.75 21.25 28.41 21.25 28V16C21.25 15.59 21.59 15.25 22 15.25C22.41 15.25 22.75 15.59 22.75 16V28C22.75 28.41 22.41 28.75 22 28.75Z" fill="white"/>
<path d="M51.3481 29.216C47.5141 29.216 45.0301 26.552 45.0301 22.43C45.0301 18.344 47.6041 15.626 51.4561 15.626C54.5701 15.626 56.8921 17.444 57.3421 20.27H54.9121C54.4621 18.74 53.1481 17.84 51.4021 17.84C48.9721 17.84 47.4421 19.604 47.4421 22.412C47.4421 25.202 48.9901 27.002 51.4021 27.002C53.1841 27.002 54.5521 26.066 54.9841 24.608H57.3781C56.8741 27.38 54.4621 29.216 51.3481 29.216ZM64.7003 20.072V22.106H63.8903C62.3063 22.106 61.3163 22.952 61.3163 24.68V29H59.1203V20.126H61.1903L61.3163 21.422C61.6943 20.54 62.5403 19.946 63.7283 19.946C64.0343 19.946 64.3403 19.982 64.7003 20.072ZM69.8659 29.234C67.2199 29.234 65.3659 27.308 65.3659 24.554C65.3659 21.764 67.1839 19.838 69.7939 19.838C72.4579 19.838 74.1499 21.62 74.1499 24.392V25.058L67.4539 25.076C67.6159 26.642 68.4439 27.434 69.9019 27.434C71.1079 27.434 71.8999 26.966 72.1519 26.12H74.1859C73.8079 28.064 72.1879 29.234 69.8659 29.234ZM69.8119 21.638C68.5159 21.638 67.7239 22.34 67.5079 23.672H71.9719C71.9719 22.448 71.1259 21.638 69.8119 21.638ZM78.4655 29.234C76.5755 29.234 75.4235 28.136 75.4235 26.462C75.4235 24.824 76.6115 23.798 78.7175 23.636L81.3815 23.438V23.24C81.3815 22.034 80.6615 21.548 79.5455 21.548C78.2495 21.548 77.5295 22.088 77.5295 23.024H75.6575C75.6575 21.098 77.2415 19.838 79.6535 19.838C82.0475 19.838 83.5235 21.134 83.5235 23.6V29H81.5975L81.4355 27.686C81.0575 28.604 79.8515 29.234 78.4655 29.234ZM79.1855 27.578C80.5355 27.578 81.3995 26.768 81.3995 25.4V24.932L79.5455 25.076C78.1775 25.202 77.6555 25.652 77.6555 26.372C77.6555 27.182 78.1955 27.578 79.1855 27.578ZM88.5818 29H86.3858V21.944H84.6758V20.108H86.3858V17.336H88.5818V20.108H90.3098V21.944H88.5818V29ZM95.5651 29.234C92.9191 29.234 91.0651 27.308 91.0651 24.554C91.0651 21.764 92.8831 19.838 95.4931 19.838C98.1571 19.838 99.8491 21.62 99.8491 24.392V25.058L93.1531 25.076C93.3151 26.642 94.1431 27.434 95.6011 27.434C96.8071 27.434 97.5991 26.966 97.8511 26.12H99.8851C99.5071 28.064 97.8871 29.234 95.5651 29.234ZM95.5111 21.638C94.2151 21.638 93.4231 22.34 93.2071 23.672H97.6711C97.6711 22.448 96.8251 21.638 95.5111 21.638ZM109.05 29H106.782V15.842H109.068L115.242 25.166V15.842H117.51V29H115.242L109.05 19.676V29ZM124.077 29.234C121.431 29.234 119.577 27.308 119.577 24.554C119.577 21.764 121.395 19.838 124.005 19.838C126.669 19.838 128.361 21.62 128.361 24.392V25.058L121.665 25.076C121.827 26.642 122.655 27.434 124.113 27.434C125.319 27.434 126.111 26.966 126.363 26.12H128.397C128.019 28.064 126.399 29.234 124.077 29.234ZM124.023 21.638C122.727 21.638 121.935 22.34 121.719 23.672H126.183C126.183 22.448 125.337 21.638 124.023 21.638ZM131.694 29L128.814 20.108H131.1L132.27 23.924C132.468 24.626 132.648 25.4 132.81 26.228C132.972 25.364 133.134 24.806 133.422 23.924L134.646 20.108H136.878L138.066 23.924C138.174 24.284 138.534 25.616 138.642 26.21C138.786 25.544 139.074 24.482 139.236 23.924L140.424 20.108H142.746L139.668 29H137.616L136.392 25.148C136.032 23.978 135.834 23.132 135.762 22.682C135.672 23.096 135.51 23.726 135.06 25.184L133.836 29H131.694ZM154.813 29.216C150.979 29.216 148.495 26.552 148.495 22.43C148.495 18.344 151.069 15.626 154.921 15.626C158.035 15.626 160.357 17.444 160.807 20.27H158.377C157.927 18.74 156.613 17.84 154.867 17.84C152.437 17.84 150.907 19.604 150.907 22.412C150.907 25.202 152.455 27.002 154.867 27.002C156.649 27.002 158.017 26.066 158.449 24.608H160.843C160.339 27.38 157.927 29.216 154.813 29.216ZM165.055 29.234C163.165 29.234 162.013 28.136 162.013 26.462C162.013 24.824 163.201 23.798 165.307 23.636L167.971 23.438V23.24C167.971 22.034 167.251 21.548 166.135 21.548C164.839 21.548 164.119 22.088 164.119 23.024H162.247C162.247 21.098 163.831 19.838 166.243 19.838C168.637 19.838 170.113 21.134 170.113 23.6V29H168.187L168.025 27.686C167.647 28.604 166.441 29.234 165.055 29.234ZM165.775 27.578C167.125 27.578 167.989 26.768 167.989 25.4V24.932L166.135 25.076C164.767 25.202 164.245 25.652 164.245 26.372C164.245 27.182 164.785 27.578 165.775 27.578ZM177.851 20.072V22.106H177.041C175.457 22.106 174.467 22.952 174.467 24.68V29H172.271V20.126H174.341L174.467 21.422C174.845 20.54 175.691 19.946 176.879 19.946C177.185 19.946 177.491 19.982 177.851 20.072ZM182.713 29H180.517V21.944H178.807V20.108H180.517V17.336H182.713V20.108H184.441V21.944H182.713V29Z" fill="white"/>
</svg>
