<svg width="50" height="44" viewBox="0 0 50 44" fill="none" xmlns="http://www.w3.org/2000/svg">
<circle cx="25" cy="12" r="11.5" stroke="#D2D2D2" stroke-dasharray="3 3"/>
<path d="M2.184 41H1.008V32.324H4.284C6.144 32.324 7.248 33.308 7.248 34.928C7.248 36.128 6.648 36.992 5.568 37.34L7.332 41H6.024L4.404 37.568H2.184V41ZM2.184 33.38V36.524H4.296C5.388 36.524 6.012 35.936 6.012 34.94C6.012 33.932 5.364 33.38 4.284 33.38H2.184ZM10.7777 41.144C9.04969 41.144 7.86169 39.896 7.86169 38.072C7.86169 36.236 9.02569 34.964 10.7297 34.964C12.3977 34.964 13.4897 36.116 13.4897 37.856V38.276L8.95369 38.288C9.03769 39.524 9.68569 40.208 10.8017 40.208C11.6777 40.208 12.2537 39.848 12.4457 39.176H13.5017C13.2137 40.436 12.2297 41.144 10.7777 41.144ZM10.7297 35.912C9.74569 35.912 9.12169 36.5 8.97769 37.532H12.3617C12.3617 36.56 11.7257 35.912 10.7297 35.912ZM14.3656 38.072C14.3656 36.236 15.5296 34.964 17.2456 34.964C18.7216 34.964 19.7536 35.804 19.9576 37.112H18.8296C18.6376 36.368 18.0376 35.972 17.2816 35.972C16.2136 35.972 15.4816 36.788 15.4816 38.06C15.4816 39.32 16.1656 40.136 17.2336 40.136C18.0376 40.136 18.6376 39.716 18.8416 39.02H19.9696C19.7416 40.292 18.6496 41.144 17.2336 41.144C15.5056 41.144 14.3656 39.92 14.3656 38.072ZM23.6918 41.144C21.9638 41.144 20.7758 39.896 20.7758 38.072C20.7758 36.236 21.9398 34.964 23.6438 34.964C25.3118 34.964 26.4037 36.116 26.4037 37.856V38.276L21.8678 38.288C21.9518 39.524 22.5998 40.208 23.7158 40.208C24.5918 40.208 25.1678 39.848 25.3598 39.176H26.4158C26.1278 40.436 25.1438 41.144 23.6918 41.144ZM23.6438 35.912C22.6598 35.912 22.0358 36.5 21.8918 37.532H25.2758C25.2758 36.56 24.6398 35.912 23.6438 35.912ZM28.2157 33.74C27.8077 33.74 27.4717 33.404 27.4717 32.996C27.4717 32.576 27.8077 32.252 28.2157 32.252C28.6237 32.252 28.9597 32.576 28.9597 32.996C28.9597 33.404 28.6237 33.74 28.2157 33.74ZM27.6637 41V35.132H28.7917V41H27.6637ZM32.0733 41L29.7093 35.132H30.9093L32.1933 38.408C32.3973 38.96 32.5653 39.452 32.6613 39.812C32.7573 39.428 32.9493 38.924 33.1533 38.408L34.4613 35.132H35.6373L33.1893 41H32.0733ZM38.7972 41.144C37.0692 41.144 35.8812 39.896 35.8812 38.072C35.8812 36.236 37.0452 34.964 38.7492 34.964C40.4172 34.964 41.5092 36.116 41.5092 37.856V38.276L36.9732 38.288C37.0572 39.524 37.7052 40.208 38.8212 40.208C39.6972 40.208 40.2732 39.848 40.4652 39.176H41.5212C41.2332 40.436 40.2492 41.144 38.7972 41.144ZM38.7492 35.912C37.7652 35.912 37.1412 36.5 36.9972 37.532H40.3812C40.3812 36.56 39.7452 35.912 38.7492 35.912ZM45.1211 41.144C43.4171 41.144 42.3851 39.872 42.3851 38.084C42.3851 36.284 43.4291 34.964 45.1691 34.964C46.0691 34.964 46.8251 35.36 47.2211 36.08V32.168H48.3371V41H47.3291L47.2331 39.932C46.8491 40.736 46.0571 41.144 45.1211 41.144ZM45.3491 40.124C46.5011 40.124 47.2091 39.272 47.2091 38.048C47.2091 36.848 46.5011 35.984 45.3491 35.984C44.1971 35.984 43.5251 36.848 43.5251 38.048C43.5251 39.26 44.1971 40.124 45.3491 40.124Z" fill="#333333" fill-opacity="0.5"/>
</svg>
