<svg width="25" height="44" viewBox="0 0 25 44" fill="none" xmlns="http://www.w3.org/2000/svg">
<circle cx="12" cy="12" r="12" fill="#1FBC54"/>
<path d="M10.7566 15.9901C10.5165 15.9901 10.2883 15.894 10.1203 15.7259L6.72256 12.3282C6.37438 11.9801 6.37438 11.4038 6.72256 11.0556C7.07073 10.7074 7.64702 10.7074 7.99519 11.0556L10.7566 13.817L16.9277 7.6459C17.2758 7.29772 17.8521 7.29772 18.2003 7.6459C18.5485 7.99407 18.5485 8.57036 18.2003 8.91853L11.3929 15.7259C11.2248 15.894 10.9967 15.9901 10.7566 15.9901Z" fill="white"/>
<path d="M0.504 34.664C0.504 33.176 1.704 32.168 3.492 32.168C5.148 32.168 6.216 33.092 6.312 34.592H5.124C5.064 33.728 4.452 33.224 3.48 33.224C2.388 33.224 1.68 33.776 1.68 34.628C1.68 35.324 2.076 35.744 2.892 35.936L4.32 36.272C5.736 36.596 6.456 37.364 6.456 38.588C6.456 40.148 5.244 41.144 3.396 41.144C1.632 41.144 0.456 40.22 0.384 38.732H1.584C1.608 39.56 2.304 40.088 3.396 40.088C4.548 40.088 5.28 39.548 5.28 38.684C5.28 38 4.908 37.568 4.08 37.376L2.652 37.052C1.236 36.728 0.504 35.912 0.504 34.664ZM10.2738 41.144C8.54578 41.144 7.35778 39.896 7.35778 38.072C7.35778 36.236 8.52178 34.964 10.2258 34.964C11.8938 34.964 12.9858 36.116 12.9858 37.856V38.276L8.44978 38.288C8.53378 39.524 9.18178 40.208 10.2978 40.208C11.1738 40.208 11.7498 39.848 11.9418 39.176H12.9978C12.7098 40.436 11.7258 41.144 10.2738 41.144ZM10.2258 35.912C9.24178 35.912 8.61778 36.5 8.47378 37.532H11.8578C11.8578 36.56 11.2218 35.912 10.2258 35.912ZM15.3737 41H14.2457V35.132H15.2657L15.3857 36.032C15.7577 35.36 16.5017 34.964 17.3297 34.964C18.8777 34.964 19.5857 35.912 19.5857 37.412V41H18.4577V37.664C18.4577 36.476 17.9057 35.996 17.0417 35.996C15.9857 35.996 15.3737 36.752 15.3737 37.892V41ZM22.804 41H21.676V36.08H20.524V35.132H21.676V33.296H22.804V35.132H23.956V36.08H22.804V41Z" fill="#1FBC54"/>
</svg>
