<svg width="96" height="95" viewBox="0 0 96 95" fill="none" xmlns="http://www.w3.org/2000/svg">
<path d="M48.0001 90.0519C24.5272 90.0519 5.448 70.9728 5.448 47.4998C5.448 24.0269 24.5272 4.94775 48.0001 4.94775C71.473 4.94775 90.5522 24.0269 90.5522 47.4998C90.5522 70.9728 71.473 90.0519 48.0001 90.0519ZM48.0001 10.8853C27.8126 10.8853 11.3855 27.3123 11.3855 47.4998C11.3855 67.6873 27.8126 84.1144 48.0001 84.1144C68.1876 84.1144 84.6147 67.6873 84.6147 47.4998C84.6147 27.3123 68.1876 10.8853 48.0001 10.8853Z" fill="#1FAA4E"/>
<path d="M42.379 61.6707C41.5873 61.6707 40.8352 61.354 40.281 60.7998L29.079 49.5978C27.931 48.4498 27.931 46.5498 29.079 45.4019C30.2269 44.254 32.1269 44.254 33.2748 45.4019L42.379 54.5061L62.7248 34.1603C63.8727 33.0123 65.7727 33.0123 66.9206 34.1603C68.0685 35.3082 68.0685 37.2082 66.9206 38.3561L44.4769 60.7998C43.9227 61.354 43.1706 61.6707 42.379 61.6707Z" fill="#1FAA4E"/>
</svg>
