<svg width="24" height="24" viewBox="0 0 24 24" fill="none" xmlns="http://www.w3.org/2000/svg">
<rect width="24" height="24" rx="5.33333" fill="#FFF3DE"/>
<path d="M15.8267 19.168H8.17341C6.51341 19.168 5.16675 17.8213 5.16675 16.1613V11.6746C5.16675 10.0146 6.51341 8.66797 8.17341 8.66797H15.8267C17.4867 8.66797 18.8334 10.0146 18.8334 11.6746V12.6346C18.8334 12.908 18.6067 13.1346 18.3334 13.1346H16.9867C16.7534 13.1346 16.5401 13.2213 16.3867 13.3813L16.3801 13.388C16.1934 13.568 16.1067 13.8146 16.1267 14.068C16.1667 14.508 16.5867 14.8613 17.0667 14.8613H18.3334C18.6067 14.8613 18.8334 15.088 18.8334 15.3613V16.1546C18.8334 17.8213 17.4867 19.168 15.8267 19.168ZM8.17341 9.66797C7.06675 9.66797 6.16675 10.568 6.16675 11.6746V16.1613C6.16675 17.268 7.06675 18.168 8.17341 18.168H15.8267C16.9334 18.168 17.8334 17.268 17.8334 16.1613V15.868H17.0667C16.0601 15.868 15.2067 15.1213 15.1267 14.1613C15.0734 13.6146 15.2734 13.0746 15.6734 12.6813C16.0201 12.328 16.4867 12.1346 16.9867 12.1346H17.8334V11.6746C17.8334 10.568 16.9334 9.66797 15.8267 9.66797H8.17341Z" fill="#F7A42F"/>
<path d="M5.66675 12.774C5.39341 12.774 5.16675 12.5473 5.16675 12.274V9.22736C5.16675 8.23403 5.79341 7.33399 6.72008 6.98065L12.0134 4.98065C12.5601 4.77399 13.1667 4.84735 13.6401 5.18069C14.1201 5.51402 14.4001 6.05402 14.4001 6.63402V9.16734C14.4001 9.44067 14.1734 9.66734 13.9001 9.66734C13.6267 9.66734 13.4001 9.44067 13.4001 9.16734V6.63402C13.4001 6.38068 13.2801 6.14734 13.0667 6.00067C12.8534 5.85401 12.6001 5.82067 12.3601 5.914L7.06675 7.914C6.52675 8.12067 6.16008 8.64736 6.16008 9.22736V12.274C6.16675 12.554 5.94008 12.774 5.66675 12.774Z" fill="#F7A42F"/>
<path d="M17.0666 15.8681C16.06 15.8681 15.2066 15.1214 15.1266 14.1614C15.0733 13.6081 15.2733 13.0681 15.6733 12.6748C16.0133 12.3281 16.48 12.1348 16.98 12.1348H18.3666C19.0266 12.1548 19.5333 12.6747 19.5333 13.3147V14.6881C19.5333 15.3281 19.0266 15.8481 18.3866 15.8681H17.0666ZM18.3533 13.1348H16.9866C16.7533 13.1348 16.54 13.2214 16.3866 13.3814C16.1933 13.5681 16.1 13.8214 16.1266 14.0747C16.1666 14.5147 16.5866 14.8681 17.0666 14.8681H18.3733C18.46 14.8681 18.54 14.7881 18.54 14.6881V13.3147C18.54 13.2147 18.46 13.1414 18.3533 13.1348Z" fill="#F7A42F"/>
<path d="M13.3334 12.501H8.66675C8.39341 12.501 8.16675 12.2743 8.16675 12.001C8.16675 11.7276 8.39341 11.501 8.66675 11.501H13.3334C13.6067 11.501 13.8334 11.7276 13.8334 12.001C13.8334 12.2743 13.6067 12.501 13.3334 12.501Z" fill="#F7A42F"/>
</svg>
