<svg width="24" height="24" viewBox="0 0 24 24" fill="none" xmlns="http://www.w3.org/2000/svg">
<rect width="24" height="24" rx="5.33333" fill="#DBFFF3"/>
<path d="M13.9266 16.1465H8.06663C7.71996 16.1465 7.39329 16.1132 7.09996 16.0465C6.94662 16.0265 6.75996 15.9732 6.56663 15.8998C5.67996 15.5665 4.6333 14.7465 4.6333 12.7065V9.27315C4.6333 7.09315 5.88663 5.83984 8.06663 5.83984H13.9266C15.7666 5.83984 16.9533 6.71982 17.2733 8.31982C17.3333 8.61316 17.36 8.92649 17.36 9.27315V12.7065C17.36 14.8998 16.1133 16.1465 13.9266 16.1465ZM8.07328 6.85319C6.43328 6.85319 5.63995 7.6465 5.63995 9.2865V12.7198C5.63995 13.9132 6.05996 14.6465 6.91996 14.9732C7.0533 15.0199 7.17997 15.0532 7.29997 15.0732C7.5533 15.1265 7.79995 15.1532 8.07328 15.1532H13.9333C15.5733 15.1532 16.3666 14.3598 16.3666 12.7198V9.2865C16.3666 9.0065 16.3466 8.75983 16.3 8.53316C16.0733 7.39983 15.3 6.85319 13.9333 6.85319H8.07328Z" fill="#37C696"/>
<path d="M15.9264 18.1466H10.0664C9.49974 18.1466 8.99306 18.0666 8.55973 17.8999C7.57973 17.5332 6.93972 16.7599 6.71972 15.6532C6.68639 15.4866 6.73974 15.3132 6.85974 15.1999C6.97974 15.0799 7.15307 15.0332 7.31974 15.0732C7.53974 15.1199 7.7864 15.1466 8.0664 15.1466H13.9264C15.5664 15.1466 16.3597 14.3532 16.3597 12.7132V9.2799C16.3597 8.9999 16.3397 8.75323 16.2931 8.52656C16.2597 8.35989 16.3131 8.19323 16.4264 8.07323C16.5464 7.95323 16.7131 7.89989 16.8797 7.93989C18.4797 8.26656 19.3597 9.45323 19.3597 11.2799V14.7132C19.3597 16.8999 18.1131 18.1466 15.9264 18.1466ZM7.94641 16.1466C8.15974 16.5332 8.47973 16.8066 8.91973 16.9666C9.23973 17.0866 9.62639 17.1466 10.0731 17.1466H15.9331C17.5731 17.1466 18.3664 16.3532 18.3664 14.7132V11.2799C18.3664 10.2266 18.0397 9.52657 17.3664 9.1599C17.3664 9.1999 17.3664 9.2399 17.3664 9.2799V12.7132C17.3664 14.8932 16.1131 16.1466 13.9331 16.1466H8.07305C8.02639 16.1466 7.98641 16.1466 7.94641 16.1466Z" fill="#37C696"/>
<path d="M10.9998 13.2603C9.75309 13.2603 8.73975 12.2469 8.73975 11.0002C8.73975 9.75358 9.75309 8.74023 10.9998 8.74023C12.2464 8.74023 13.2598 9.75358 13.2598 11.0002C13.2598 12.2469 12.2464 13.2603 10.9998 13.2603ZM10.9998 9.74023C10.3064 9.74023 9.73975 10.3069 9.73975 11.0002C9.73975 11.6936 10.3064 12.2603 10.9998 12.2603C11.6931 12.2603 12.2598 11.6936 12.2598 11.0002C12.2598 10.3069 11.6931 9.74023 10.9998 9.74023Z" fill="#37C696"/>
<path d="M7.18652 12.9666C6.91319 12.9666 6.68652 12.7399 6.68652 12.4666V9.5332C6.68652 9.25987 6.91319 9.0332 7.18652 9.0332C7.45986 9.0332 7.68652 9.25987 7.68652 9.5332V12.4666C7.68652 12.7399 7.46652 12.9666 7.18652 12.9666Z" fill="#37C696"/>
<path d="M14.8064 12.9666C14.5331 12.9666 14.3064 12.7399 14.3064 12.4666V9.5332C14.3064 9.25987 14.5331 9.0332 14.8064 9.0332C15.0797 9.0332 15.3064 9.25987 15.3064 9.5332V12.4666C15.3064 12.7399 15.0864 12.9666 14.8064 12.9666Z" fill="#37C696"/>
</svg>
