<svg width="76" height="71" viewBox="0 0 76 71" fill="none" xmlns="http://www.w3.org/2000/svg">
<rect x="0.5" width="75" height="71" rx="8" fill="#CB9065" fill-opacity="0.3"/>
<g filter="url(#filter0_i_42_259)">
<path d="M16.1172 24.9941C16.1172 24.694 16.271 24.4149 16.5247 24.2545L36.759 11.4639C37.0446 11.2834 37.4085 11.2834 37.6941 11.4639L57.9285 24.2545C58.1821 24.4149 58.3359 24.694 58.3359 24.9941V47.3205C58.3359 47.6241 58.1786 47.906 57.9202 48.0653L37.6858 60.5414C37.4042 60.715 37.0489 60.715 36.7673 60.5414L16.533 48.0653C16.2745 47.906 16.1172 47.6241 16.1172 47.3205V24.9941Z" fill="url(#paint0_linear_42_259)"/>
<path d="M16.1172 24.9941C16.1172 24.694 16.271 24.4149 16.5247 24.2545L36.759 11.4639C37.0446 11.2834 37.4085 11.2834 37.6941 11.4639L57.9285 24.2545C58.1821 24.4149 58.3359 24.694 58.3359 24.9941V47.3205C58.3359 47.6241 58.1786 47.906 57.9202 48.0653L37.6858 60.5414C37.4042 60.715 37.0489 60.715 36.7673 60.5414L16.533 48.0653C16.2745 47.906 16.1172 47.6241 16.1172 47.3205V24.9941Z" fill="url(#paint1_linear_42_259)"/>
</g>
<g filter="url(#filter1_i_42_259)">
<path d="M37.0625 60.6561C36.9597 60.6365 36.8595 60.5982 36.7673 60.5414L16.533 48.0653C16.2745 47.9059 16.1172 47.6241 16.1172 47.3205V25.0027L36.6494 37.7631C36.9063 37.9228 37.0625 38.2038 37.0625 38.5063V60.6561Z" fill="url(#paint2_linear_42_259)"/>
</g>
<path d="M58.2864 24.7039C58.3187 24.7958 58.3359 24.8938 58.3359 24.9942V47.3205C58.3359 47.6241 58.1786 47.906 57.9202 48.0653L37.6858 60.5415C37.4964 60.6582 37.2737 60.6964 37.0625 60.6562V38.359C37.0625 38.0565 37.2187 37.7755 37.4756 37.6158L58.124 24.7832C58.1766 24.7505 58.231 24.7242 58.2864 24.7039Z" fill="url(#paint3_linear_42_259)"/>
<path d="M58.2864 24.7039C58.3187 24.7958 58.3359 24.8938 58.3359 24.9942V47.3205C58.3359 47.6241 58.1786 47.906 57.9202 48.0653L37.6858 60.5415C37.4964 60.6582 37.2737 60.6964 37.0625 60.6562V38.359C37.0625 38.0565 37.2187 37.7755 37.4756 37.6158L58.124 24.7832C58.1766 24.7505 58.231 24.7242 58.2864 24.7039Z" fill="url(#paint4_linear_42_259)"/>
<g filter="url(#filter2_i_42_259)">
<path d="M28.3672 47.9604C28.3672 47.5486 28.8197 47.2971 29.1694 47.5145L34.6397 50.9153C34.8966 51.075 35.0527 51.356 35.0527 51.6584V55.6143C35.0527 56.026 34.6003 56.2775 34.2506 56.0601L28.7802 52.6593C28.5234 52.4997 28.3672 52.2187 28.3672 51.9162V47.9604Z" fill="url(#paint5_linear_42_259)"/>
</g>
<g filter="url(#filter3_i_42_259)">
<path d="M23.9375 30.5093V35.3127L29.0508 38.3752V33.9065C29.0508 33.3091 29.3526 32.755 29.8558 32.433C36.838 27.9667 49.4176 19.8163 49.7227 19.5217C50.0029 19.3166 50.3743 19.4169 50.4883 19.5764C50.4883 19.2483 50.3151 19.0569 50.2285 19.0022L45.4338 16.0755C45.1471 15.9005 44.7855 15.9051 44.5033 16.0873L24.8984 28.745C24.2994 29.1318 23.9375 29.7962 23.9375 30.5093Z" fill="#966957"/>
<path d="M23.9375 30.5093V35.3127L29.0508 38.3752V33.9065C29.0508 33.3091 29.3526 32.755 29.8558 32.433C36.838 27.9667 49.4176 19.8163 49.7227 19.5217C50.0029 19.3166 50.3743 19.4169 50.4883 19.5764C50.4883 19.2483 50.3151 19.0569 50.2285 19.0022L45.4338 16.0755C45.1471 15.9005 44.7855 15.9051 44.5033 16.0873L24.8984 28.745C24.2994 29.1318 23.9375 29.7962 23.9375 30.5093Z" fill="url(#paint6_linear_42_259)"/>
<path d="M23.9375 30.5093V35.3127L29.0508 38.3752V33.9065C29.0508 33.3091 29.3526 32.755 29.8558 32.433C36.838 27.9667 49.4176 19.8163 49.7227 19.5217C50.0029 19.3166 50.3743 19.4169 50.4883 19.5764C50.4883 19.2483 50.3151 19.0569 50.2285 19.0022L45.4338 16.0755C45.1471 15.9005 44.7855 15.9051 44.5033 16.0873L24.8984 28.745C24.2994 29.1318 23.9375 29.7962 23.9375 30.5093Z" fill="url(#paint7_linear_42_259)"/>
</g>
<g filter="url(#filter4_f_42_259)">
<path d="M50.1328 19.1938C49.9961 19.0953 49.7842 19.1527 49.6953 19.1938L29.4883 32.3734C29.4382 32.4053 29.3092 32.5143 29.1943 32.6947" stroke="#A47E73" stroke-width="0.0875"/>
</g>
<g filter="url(#filter5_f_42_259)">
<path d="M37.5 37.5276L57.8438 24.8401" stroke="#F4CAA3" stroke-width="0.35" stroke-linecap="round"/>
</g>
<defs>
<filter id="filter0_i_42_259" x="16.1172" y="11.3285" width="42.2188" height="49.5181" filterUnits="userSpaceOnUse" color-interpolation-filters="sRGB">
<feFlood flood-opacity="0" result="BackgroundImageFix"/>
<feBlend mode="normal" in="SourceGraphic" in2="BackgroundImageFix" result="shape"/>
<feColorMatrix in="SourceAlpha" type="matrix" values="0 0 0 0 0 0 0 0 0 0 0 0 0 0 0 0 0 0 127 0" result="hardAlpha"/>
<feOffset dy="0.175"/>
<feGaussianBlur stdDeviation="0.2625"/>
<feComposite in2="hardAlpha" operator="arithmetic" k2="-1" k3="1"/>
<feColorMatrix type="matrix" values="0 0 0 0 0.843137 0 0 0 0 0.694118 0 0 0 0 0.52549 0 0 0 1 0"/>
<feBlend mode="normal" in2="shape" result="effect1_innerShadow_42_259"/>
</filter>
<filter id="filter1_i_42_259" x="16.1172" y="25.0027" width="22.6953" height="37.4034" filterUnits="userSpaceOnUse" color-interpolation-filters="sRGB">
<feFlood flood-opacity="0" result="BackgroundImageFix"/>
<feBlend mode="normal" in="SourceGraphic" in2="BackgroundImageFix" result="shape"/>
<feColorMatrix in="SourceAlpha" type="matrix" values="0 0 0 0 0 0 0 0 0 0 0 0 0 0 0 0 0 0 127 0" result="hardAlpha"/>
<feOffset dx="1.75" dy="1.75"/>
<feGaussianBlur stdDeviation="2.625"/>
<feComposite in2="hardAlpha" operator="arithmetic" k2="-1" k3="1"/>
<feColorMatrix type="matrix" values="0 0 0 0 0.831373 0 0 0 0 0.670588 0 0 0 0 0.545098 0 0 0 1 0"/>
<feBlend mode="normal" in2="shape" result="effect1_innerShadow_42_259"/>
</filter>
<filter id="filter2_i_42_259" x="28.1922" y="47.4346" width="6.86055" height="8.70557" filterUnits="userSpaceOnUse" color-interpolation-filters="sRGB">
<feFlood flood-opacity="0" result="BackgroundImageFix"/>
<feBlend mode="normal" in="SourceGraphic" in2="BackgroundImageFix" result="shape"/>
<feColorMatrix in="SourceAlpha" type="matrix" values="0 0 0 0 0 0 0 0 0 0 0 0 0 0 0 0 0 0 127 0" result="hardAlpha"/>
<feOffset dx="-0.2625"/>
<feGaussianBlur stdDeviation="0.0875"/>
<feComposite in2="hardAlpha" operator="arithmetic" k2="-1" k3="1"/>
<feColorMatrix type="matrix" values="0 0 0 0 0.760103 0 0 0 0 0.683293 0 0 0 0 0.795016 0 0 0 1 0"/>
<feBlend mode="normal" in2="shape" result="effect1_innerShadow_42_259"/>
</filter>
<filter id="filter3_i_42_259" x="23.7625" y="15.9474" width="26.7258" height="22.4279" filterUnits="userSpaceOnUse" color-interpolation-filters="sRGB">
<feFlood flood-opacity="0" result="BackgroundImageFix"/>
<feBlend mode="normal" in="SourceGraphic" in2="BackgroundImageFix" result="shape"/>
<feColorMatrix in="SourceAlpha" type="matrix" values="0 0 0 0 0 0 0 0 0 0 0 0 0 0 0 0 0 0 127 0" result="hardAlpha"/>
<feOffset dx="-0.175"/>
<feGaussianBlur stdDeviation="0.0875"/>
<feComposite in2="hardAlpha" operator="arithmetic" k2="-1" k3="1"/>
<feColorMatrix type="matrix" values="0 0 0 0 0.47451 0 0 0 0 0.266667 0 0 0 0 0.301961 0 0 0 1 0"/>
<feBlend mode="normal" in2="shape" result="effect1_innerShadow_42_259"/>
</filter>
<filter id="filter4_f_42_259" x="28.9825" y="18.9207" width="21.3509" height="13.9726" filterUnits="userSpaceOnUse" color-interpolation-filters="sRGB">
<feFlood flood-opacity="0" result="BackgroundImageFix"/>
<feBlend mode="normal" in="SourceGraphic" in2="BackgroundImageFix" result="shape"/>
<feGaussianBlur stdDeviation="0.0875" result="effect1_foregroundBlur_42_259"/>
</filter>
<filter id="filter5_f_42_259" x="36.8875" y="24.2275" width="21.5688" height="13.9126" filterUnits="userSpaceOnUse" color-interpolation-filters="sRGB">
<feFlood flood-opacity="0" result="BackgroundImageFix"/>
<feBlend mode="normal" in="SourceGraphic" in2="BackgroundImageFix" result="shape"/>
<feGaussianBlur stdDeviation="0.21875" result="effect1_foregroundBlur_42_259"/>
</filter>
<linearGradient id="paint0_linear_42_259" x1="37.2266" y1="11.3285" x2="37.2266" y2="60.6716" gradientUnits="userSpaceOnUse">
<stop stop-color="#DEB586"/>
<stop offset="1" stop-color="#D7AA82"/>
</linearGradient>
<linearGradient id="paint1_linear_42_259" x1="28.0937" y1="32.6332" x2="28.8867" y2="31.3754" gradientUnits="userSpaceOnUse">
<stop offset="0.0656074" stop-color="#C99D78"/>
<stop offset="1" stop-color="#DCB185" stop-opacity="0"/>
</linearGradient>
<linearGradient id="paint2_linear_42_259" x1="18.9083" y1="34.5455" x2="33.7658" y2="59.4001" gradientUnits="userSpaceOnUse">
<stop stop-color="#B98875"/>
<stop offset="1" stop-color="#AA684F"/>
</linearGradient>
<linearGradient id="paint3_linear_42_259" x1="38.5391" y1="37.309" x2="52.5391" y2="51.8559" gradientUnits="userSpaceOnUse">
<stop stop-color="#D7A585"/>
<stop offset="1" stop-color="#BD7943"/>
</linearGradient>
<linearGradient id="paint4_linear_42_259" x1="36.4929" y1="52.1229" x2="38.5205" y2="52.0103" gradientUnits="userSpaceOnUse">
<stop stop-color="#B46C4B"/>
<stop offset="1" stop-color="#BD7E61" stop-opacity="0"/>
</linearGradient>
<linearGradient id="paint5_linear_42_259" x1="29.3472" y1="47.8012" x2="33.9315" y2="56.6384" gradientUnits="userSpaceOnUse">
<stop stop-color="#CAB6CD"/>
<stop offset="1" stop-color="#D1BED7"/>
</linearGradient>
<linearGradient id="paint6_linear_42_259" x1="24.9219" y1="35.7502" x2="28.4219" y2="30.5549" gradientUnits="userSpaceOnUse">
<stop offset="0.649314" stop-color="#8D6D6C"/>
<stop offset="0.725768" stop-color="#83554C"/>
<stop offset="0.825328" stop-color="#83554C"/>
<stop offset="1" stop-color="#976A58" stop-opacity="0"/>
</linearGradient>
<linearGradient id="paint7_linear_42_259" x1="49.1484" y1="18.1135" x2="47.3984" y2="20.0823" gradientUnits="userSpaceOnUse">
<stop stop-color="#9C6F5D"/>
<stop offset="1" stop-color="#9C6F5D" stop-opacity="0"/>
</linearGradient>
</defs>
</svg>
