<svg width="75" height="71" viewBox="0 0 75 71" fill="none" xmlns="http://www.w3.org/2000/svg">
<rect width="75" height="71" rx="8" fill="#9EC8FF" fill-opacity="0.3"/>
<g filter="url(#filter0_ii_42_260)">
<path d="M15.1523 53.5547H52.1484C55.8483 53.5547 58.8477 50.5553 58.8477 46.8555C58.8477 43.1556 55.8483 40.1562 52.1484 40.1562" stroke="#CAC8CB" stroke-width="2" stroke-linecap="round"/>
</g>
<circle cx="19.459" cy="57.8066" r="2.57031" fill="#4381C4"/>
<circle cx="19.459" cy="57.8066" r="2.57031" fill="url(#paint0_radial_42_260)"/>
<circle cx="19.459" cy="57.8066" r="2.57031" fill="url(#paint1_radial_42_260)"/>
<circle cx="19.459" cy="57.8066" r="2.57031" fill="url(#paint2_radial_42_260)"/>
<g filter="url(#filter1_f_42_260)">
<circle cx="19.459" cy="57.8066" r="1.81836" fill="#4880CB"/>
</g>
<g filter="url(#filter2_i_42_260)">
<path fill-rule="evenodd" clip-rule="evenodd" d="M23.3773 35.8359C23.6673 35.8359 23.9023 35.6009 23.9023 35.3109V29.9762C23.9023 29.6862 23.6673 29.4512 23.3773 29.4512L15.609 29.4512C15.319 29.4512 15.084 29.2161 15.084 28.9262V28.2262C15.084 27.9362 15.319 27.7012 15.609 27.7012L23.3773 27.7012C23.6673 27.7012 23.9023 27.4661 23.9023 27.1762V21.8688C23.9023 21.5788 24.1374 21.3438 24.4273 21.3438H25.1273C25.4173 21.3438 25.6523 21.5788 25.6523 21.8687V27.1762C25.6523 27.4661 25.8874 27.7012 26.1773 27.7012L33.0844 27.7012C33.3743 27.7012 33.6094 27.4661 33.6094 27.1762V21.8688C33.6094 21.5788 33.8444 21.3438 34.1344 21.3438H34.8344C35.1243 21.3438 35.3594 21.5788 35.3594 21.8687V27.1762C35.3594 27.4661 35.5944 27.7012 35.8844 27.7012L42.7914 27.7012C43.0814 27.7012 43.3164 27.4661 43.3164 27.1762V21.8688C43.3164 21.5788 43.5515 21.3438 43.8414 21.3438H44.5414C44.8314 21.3438 45.0664 21.5788 45.0664 21.8688V27.1762C45.0664 27.4661 45.3015 27.7012 45.5914 27.7012L53.2914 27.7012C53.5814 27.7012 53.8164 27.9362 53.8164 28.2262V28.9262C53.8164 29.2161 53.5814 29.4512 53.2914 29.4512L45.5914 29.4512C45.3015 29.4512 45.0664 29.6862 45.0664 29.9762V35.3109C45.0664 35.6009 45.3015 35.8359 45.5914 35.8359L53.2914 35.8359C53.5814 35.8359 53.8164 36.071 53.8164 36.3609V37.0609C53.8164 37.3509 53.5814 37.5859 53.2914 37.5859L45.5914 37.5859C45.3015 37.5859 45.0664 37.821 45.0664 38.1109V45.0781C45.0664 45.3681 44.8314 45.6031 44.5414 45.6031H43.8414C43.5515 45.6031 43.3164 45.3681 43.3164 45.0781V38.1109C43.3164 37.821 43.0814 37.5859 42.7914 37.5859L35.8844 37.5859C35.5944 37.5859 35.3594 37.821 35.3594 38.1109V43.6234C35.3594 43.9134 35.1243 44.1484 34.8344 44.1484H34.1344C33.8444 44.1484 33.6094 43.9134 33.6094 43.6234V38.1109C33.6094 37.821 33.3743 37.5859 33.0844 37.5859L26.1773 37.5859C25.8874 37.5859 25.6523 37.821 25.6523 38.1109V43.6234C25.6523 43.9134 25.4173 44.1484 25.1273 44.1484H24.4273C24.1374 44.1484 23.9023 43.9134 23.9023 43.6234V38.1109C23.9023 37.821 23.6673 37.5859 23.3773 37.5859L15.609 37.5859C15.319 37.5859 15.084 37.3509 15.084 37.0609V36.3609C15.084 36.071 15.319 35.8359 15.609 35.8359L23.3773 35.8359ZM25.6523 35.3109C25.6523 35.6009 25.8874 35.8359 26.1773 35.8359L33.0844 35.8359C33.3743 35.8359 33.6094 35.6009 33.6094 35.3109V29.9762C33.6094 29.6862 33.3743 29.4512 33.0844 29.4512L26.1773 29.4512C25.8874 29.4512 25.6523 29.6862 25.6523 29.9762V35.3109ZM35.3594 35.3109C35.3594 35.6009 35.5944 35.8359 35.8844 35.8359L42.7914 35.8359C43.0814 35.8359 43.3164 35.6009 43.3164 35.3109V29.9762C43.3164 29.6862 43.0814 29.4512 42.7914 29.4512L35.8844 29.4512C35.5944 29.4512 35.3594 29.6862 35.3594 29.9762V35.3109Z" fill="#A09DA3"/>
<path fill-rule="evenodd" clip-rule="evenodd" d="M23.3773 35.8359C23.6673 35.8359 23.9023 35.6009 23.9023 35.3109V29.9762C23.9023 29.6862 23.6673 29.4512 23.3773 29.4512L15.609 29.4512C15.319 29.4512 15.084 29.2161 15.084 28.9262V28.2262C15.084 27.9362 15.319 27.7012 15.609 27.7012L23.3773 27.7012C23.6673 27.7012 23.9023 27.4661 23.9023 27.1762V21.8688C23.9023 21.5788 24.1374 21.3438 24.4273 21.3438H25.1273C25.4173 21.3438 25.6523 21.5788 25.6523 21.8687V27.1762C25.6523 27.4661 25.8874 27.7012 26.1773 27.7012L33.0844 27.7012C33.3743 27.7012 33.6094 27.4661 33.6094 27.1762V21.8688C33.6094 21.5788 33.8444 21.3438 34.1344 21.3438H34.8344C35.1243 21.3438 35.3594 21.5788 35.3594 21.8687V27.1762C35.3594 27.4661 35.5944 27.7012 35.8844 27.7012L42.7914 27.7012C43.0814 27.7012 43.3164 27.4661 43.3164 27.1762V21.8688C43.3164 21.5788 43.5515 21.3438 43.8414 21.3438H44.5414C44.8314 21.3438 45.0664 21.5788 45.0664 21.8688V27.1762C45.0664 27.4661 45.3015 27.7012 45.5914 27.7012L53.2914 27.7012C53.5814 27.7012 53.8164 27.9362 53.8164 28.2262V28.9262C53.8164 29.2161 53.5814 29.4512 53.2914 29.4512L45.5914 29.4512C45.3015 29.4512 45.0664 29.6862 45.0664 29.9762V35.3109C45.0664 35.6009 45.3015 35.8359 45.5914 35.8359L53.2914 35.8359C53.5814 35.8359 53.8164 36.071 53.8164 36.3609V37.0609C53.8164 37.3509 53.5814 37.5859 53.2914 37.5859L45.5914 37.5859C45.3015 37.5859 45.0664 37.821 45.0664 38.1109V45.0781C45.0664 45.3681 44.8314 45.6031 44.5414 45.6031H43.8414C43.5515 45.6031 43.3164 45.3681 43.3164 45.0781V38.1109C43.3164 37.821 43.0814 37.5859 42.7914 37.5859L35.8844 37.5859C35.5944 37.5859 35.3594 37.821 35.3594 38.1109V43.6234C35.3594 43.9134 35.1243 44.1484 34.8344 44.1484H34.1344C33.8444 44.1484 33.6094 43.9134 33.6094 43.6234V38.1109C33.6094 37.821 33.3743 37.5859 33.0844 37.5859L26.1773 37.5859C25.8874 37.5859 25.6523 37.821 25.6523 38.1109V43.6234C25.6523 43.9134 25.4173 44.1484 25.1273 44.1484H24.4273C24.1374 44.1484 23.9023 43.9134 23.9023 43.6234V38.1109C23.9023 37.821 23.6673 37.5859 23.3773 37.5859L15.609 37.5859C15.319 37.5859 15.084 37.3509 15.084 37.0609V36.3609C15.084 36.071 15.319 35.8359 15.609 35.8359L23.3773 35.8359ZM25.6523 35.3109C25.6523 35.6009 25.8874 35.8359 26.1773 35.8359L33.0844 35.8359C33.3743 35.8359 33.6094 35.6009 33.6094 35.3109V29.9762C33.6094 29.6862 33.3743 29.4512 33.0844 29.4512L26.1773 29.4512C25.8874 29.4512 25.6523 29.6862 25.6523 29.9762V35.3109ZM35.3594 35.3109C35.3594 35.6009 35.5944 35.8359 35.8844 35.8359L42.7914 35.8359C43.0814 35.8359 43.3164 35.6009 43.3164 35.3109V29.9762C43.3164 29.6862 43.0814 29.4512 42.7914 29.4512L35.8844 29.4512C35.5944 29.4512 35.3594 29.6862 35.3594 29.9762V35.3109Z" fill="url(#paint3_radial_42_260)"/>
<path fill-rule="evenodd" clip-rule="evenodd" d="M23.3773 35.8359C23.6673 35.8359 23.9023 35.6009 23.9023 35.3109V29.9762C23.9023 29.6862 23.6673 29.4512 23.3773 29.4512L15.609 29.4512C15.319 29.4512 15.084 29.2161 15.084 28.9262V28.2262C15.084 27.9362 15.319 27.7012 15.609 27.7012L23.3773 27.7012C23.6673 27.7012 23.9023 27.4661 23.9023 27.1762V21.8688C23.9023 21.5788 24.1374 21.3438 24.4273 21.3438H25.1273C25.4173 21.3438 25.6523 21.5788 25.6523 21.8687V27.1762C25.6523 27.4661 25.8874 27.7012 26.1773 27.7012L33.0844 27.7012C33.3743 27.7012 33.6094 27.4661 33.6094 27.1762V21.8688C33.6094 21.5788 33.8444 21.3438 34.1344 21.3438H34.8344C35.1243 21.3438 35.3594 21.5788 35.3594 21.8687V27.1762C35.3594 27.4661 35.5944 27.7012 35.8844 27.7012L42.7914 27.7012C43.0814 27.7012 43.3164 27.4661 43.3164 27.1762V21.8688C43.3164 21.5788 43.5515 21.3438 43.8414 21.3438H44.5414C44.8314 21.3438 45.0664 21.5788 45.0664 21.8688V27.1762C45.0664 27.4661 45.3015 27.7012 45.5914 27.7012L53.2914 27.7012C53.5814 27.7012 53.8164 27.9362 53.8164 28.2262V28.9262C53.8164 29.2161 53.5814 29.4512 53.2914 29.4512L45.5914 29.4512C45.3015 29.4512 45.0664 29.6862 45.0664 29.9762V35.3109C45.0664 35.6009 45.3015 35.8359 45.5914 35.8359L53.2914 35.8359C53.5814 35.8359 53.8164 36.071 53.8164 36.3609V37.0609C53.8164 37.3509 53.5814 37.5859 53.2914 37.5859L45.5914 37.5859C45.3015 37.5859 45.0664 37.821 45.0664 38.1109V45.0781C45.0664 45.3681 44.8314 45.6031 44.5414 45.6031H43.8414C43.5515 45.6031 43.3164 45.3681 43.3164 45.0781V38.1109C43.3164 37.821 43.0814 37.5859 42.7914 37.5859L35.8844 37.5859C35.5944 37.5859 35.3594 37.821 35.3594 38.1109V43.6234C35.3594 43.9134 35.1243 44.1484 34.8344 44.1484H34.1344C33.8444 44.1484 33.6094 43.9134 33.6094 43.6234V38.1109C33.6094 37.821 33.3743 37.5859 33.0844 37.5859L26.1773 37.5859C25.8874 37.5859 25.6523 37.821 25.6523 38.1109V43.6234C25.6523 43.9134 25.4173 44.1484 25.1273 44.1484H24.4273C24.1374 44.1484 23.9023 43.9134 23.9023 43.6234V38.1109C23.9023 37.821 23.6673 37.5859 23.3773 37.5859L15.609 37.5859C15.319 37.5859 15.084 37.3509 15.084 37.0609V36.3609C15.084 36.071 15.319 35.8359 15.609 35.8359L23.3773 35.8359ZM25.6523 35.3109C25.6523 35.6009 25.8874 35.8359 26.1773 35.8359L33.0844 35.8359C33.3743 35.8359 33.6094 35.6009 33.6094 35.3109V29.9762C33.6094 29.6862 33.3743 29.4512 33.0844 29.4512L26.1773 29.4512C25.8874 29.4512 25.6523 29.6862 25.6523 29.9762V35.3109ZM35.3594 35.3109C35.3594 35.6009 35.5944 35.8359 35.8844 35.8359L42.7914 35.8359C43.0814 35.8359 43.3164 35.6009 43.3164 35.3109V29.9762C43.3164 29.6862 43.0814 29.4512 42.7914 29.4512L35.8844 29.4512C35.5944 29.4512 35.3594 29.6862 35.3594 29.9762V35.3109Z" fill="url(#paint4_linear_42_260)"/>
<path fill-rule="evenodd" clip-rule="evenodd" d="M23.3773 35.8359C23.6673 35.8359 23.9023 35.6009 23.9023 35.3109V29.9762C23.9023 29.6862 23.6673 29.4512 23.3773 29.4512L15.609 29.4512C15.319 29.4512 15.084 29.2161 15.084 28.9262V28.2262C15.084 27.9362 15.319 27.7012 15.609 27.7012L23.3773 27.7012C23.6673 27.7012 23.9023 27.4661 23.9023 27.1762V21.8688C23.9023 21.5788 24.1374 21.3438 24.4273 21.3438H25.1273C25.4173 21.3438 25.6523 21.5788 25.6523 21.8687V27.1762C25.6523 27.4661 25.8874 27.7012 26.1773 27.7012L33.0844 27.7012C33.3743 27.7012 33.6094 27.4661 33.6094 27.1762V21.8688C33.6094 21.5788 33.8444 21.3438 34.1344 21.3438H34.8344C35.1243 21.3438 35.3594 21.5788 35.3594 21.8687V27.1762C35.3594 27.4661 35.5944 27.7012 35.8844 27.7012L42.7914 27.7012C43.0814 27.7012 43.3164 27.4661 43.3164 27.1762V21.8688C43.3164 21.5788 43.5515 21.3438 43.8414 21.3438H44.5414C44.8314 21.3438 45.0664 21.5788 45.0664 21.8688V27.1762C45.0664 27.4661 45.3015 27.7012 45.5914 27.7012L53.2914 27.7012C53.5814 27.7012 53.8164 27.9362 53.8164 28.2262V28.9262C53.8164 29.2161 53.5814 29.4512 53.2914 29.4512L45.5914 29.4512C45.3015 29.4512 45.0664 29.6862 45.0664 29.9762V35.3109C45.0664 35.6009 45.3015 35.8359 45.5914 35.8359L53.2914 35.8359C53.5814 35.8359 53.8164 36.071 53.8164 36.3609V37.0609C53.8164 37.3509 53.5814 37.5859 53.2914 37.5859L45.5914 37.5859C45.3015 37.5859 45.0664 37.821 45.0664 38.1109V45.0781C45.0664 45.3681 44.8314 45.6031 44.5414 45.6031H43.8414C43.5515 45.6031 43.3164 45.3681 43.3164 45.0781V38.1109C43.3164 37.821 43.0814 37.5859 42.7914 37.5859L35.8844 37.5859C35.5944 37.5859 35.3594 37.821 35.3594 38.1109V43.6234C35.3594 43.9134 35.1243 44.1484 34.8344 44.1484H34.1344C33.8444 44.1484 33.6094 43.9134 33.6094 43.6234V38.1109C33.6094 37.821 33.3743 37.5859 33.0844 37.5859L26.1773 37.5859C25.8874 37.5859 25.6523 37.821 25.6523 38.1109V43.6234C25.6523 43.9134 25.4173 44.1484 25.1273 44.1484H24.4273C24.1374 44.1484 23.9023 43.9134 23.9023 43.6234V38.1109C23.9023 37.821 23.6673 37.5859 23.3773 37.5859L15.609 37.5859C15.319 37.5859 15.084 37.3509 15.084 37.0609V36.3609C15.084 36.071 15.319 35.8359 15.609 35.8359L23.3773 35.8359ZM25.6523 35.3109C25.6523 35.6009 25.8874 35.8359 26.1773 35.8359L33.0844 35.8359C33.3743 35.8359 33.6094 35.6009 33.6094 35.3109V29.9762C33.6094 29.6862 33.3743 29.4512 33.0844 29.4512L26.1773 29.4512C25.8874 29.4512 25.6523 29.6862 25.6523 29.9762V35.3109ZM35.3594 35.3109C35.3594 35.6009 35.5944 35.8359 35.8844 35.8359L42.7914 35.8359C43.0814 35.8359 43.3164 35.6009 43.3164 35.3109V29.9762C43.3164 29.6862 43.0814 29.4512 42.7914 29.4512L35.8844 29.4512C35.5944 29.4512 35.3594 29.6862 35.3594 29.9762V35.3109Z" fill="url(#paint5_linear_42_260)"/>
</g>
<g filter="url(#filter3_f_42_260)">
<path d="M24.7773 21.3438V44.1484M34.4844 21.3438V44.1484M44.1914 21.3438V44.1484M15.084 28.5762L53.8164 28.5762M15.084 36.7109L53.8164 36.7109" stroke="url(#paint6_radial_42_260)" stroke-width="0.15"/>
</g>
<circle cx="50.7676" cy="57.8066" r="2.57031" fill="#4381C4"/>
<circle cx="50.7676" cy="57.8066" r="2.57031" fill="url(#paint7_radial_42_260)"/>
<circle cx="50.7676" cy="57.8066" r="2.57031" fill="url(#paint8_radial_42_260)"/>
<circle cx="50.7676" cy="57.8066" r="2.57031" fill="url(#paint9_radial_42_260)"/>
<g filter="url(#filter4_f_42_260)">
<circle cx="50.7676" cy="57.8066" r="1.81836" fill="#4880CB"/>
</g>
<g filter="url(#filter5_iii_42_260)">
<path fill-rule="evenodd" clip-rule="evenodd" d="M51.109 18.6861C43.2067 18.6825 29.7664 18.6765 19.0589 18.6827C15.7728 18.6847 13.1762 21.4649 13.3934 24.744L14.3201 38.7308C14.5784 42.6281 17.6542 45.7472 21.5474 46.0599L49.4962 48.3046L57.0157 18.6882C55.961 18.6882 53.8739 18.6872 51.109 18.6861ZM47.897 22.0722L46.9269 22.0718C40.6139 22.0688 29.0187 22.0632 19.1519 22.0711C17.8424 22.0721 16.805 23.1761 16.8843 24.4832L17.7379 38.5843C17.8701 40.7691 19.7051 42.5488 22.2344 42.7129L43.6837 44.3175C44.7037 44.3936 45.6302 43.7237 45.8776 42.7312L50.2688 25.116C50.6542 23.57 49.4902 22.0729 47.897 22.0722Z" fill="#C0BFC1"/>
<path fill-rule="evenodd" clip-rule="evenodd" d="M51.109 18.6861C43.2067 18.6825 29.7664 18.6765 19.0589 18.6827C15.7728 18.6847 13.1762 21.4649 13.3934 24.744L14.3201 38.7308C14.5784 42.6281 17.6542 45.7472 21.5474 46.0599L49.4962 48.3046L57.0157 18.6882C55.961 18.6882 53.8739 18.6872 51.109 18.6861ZM47.897 22.0722L46.9269 22.0718C40.6139 22.0688 29.0187 22.0632 19.1519 22.0711C17.8424 22.0721 16.805 23.1761 16.8843 24.4832L17.7379 38.5843C17.8701 40.7691 19.7051 42.5488 22.2344 42.7129L43.6837 44.3175C44.7037 44.3936 45.6302 43.7237 45.8776 42.7312L50.2688 25.116C50.6542 23.57 49.4902 22.0729 47.897 22.0722Z" fill="url(#paint10_linear_42_260)"/>
<path fill-rule="evenodd" clip-rule="evenodd" d="M51.109 18.6861C43.2067 18.6825 29.7664 18.6765 19.0589 18.6827C15.7728 18.6847 13.1762 21.4649 13.3934 24.744L14.3201 38.7308C14.5784 42.6281 17.6542 45.7472 21.5474 46.0599L49.4962 48.3046L57.0157 18.6882C55.961 18.6882 53.8739 18.6872 51.109 18.6861ZM47.897 22.0722L46.9269 22.0718C40.6139 22.0688 29.0187 22.0632 19.1519 22.0711C17.8424 22.0721 16.805 23.1761 16.8843 24.4832L17.7379 38.5843C17.8701 40.7691 19.7051 42.5488 22.2344 42.7129L43.6837 44.3175C44.7037 44.3936 45.6302 43.7237 45.8776 42.7312L50.2688 25.116C50.6542 23.57 49.4902 22.0729 47.897 22.0722Z" fill="url(#paint11_radial_42_260)"/>
</g>
<g filter="url(#filter6_i_42_260)">
<path fill-rule="evenodd" clip-rule="evenodd" d="M58.2275 14.3125C59.1659 14.5439 59.739 15.4922 59.5076 16.4306L51.6053 48.4775C51.3739 49.4159 50.4256 49.989 49.4872 49.7576C48.5488 49.5262 47.9757 48.5779 48.2071 47.6395L56.1094 15.5927C56.3408 14.6543 57.2891 14.0811 58.2275 14.3125Z" fill="#C1BFC4"/>
</g>
<path fill-rule="evenodd" clip-rule="evenodd" d="M58.2275 14.3125C59.1659 14.5439 59.739 15.4922 59.5076 16.4306L51.6053 48.4775C51.3739 49.4159 50.4256 49.989 49.4872 49.7576C48.5488 49.5262 47.9757 48.5779 48.2071 47.6395L56.1094 15.5927C56.3408 14.6543 57.2891 14.0811 58.2275 14.3125Z" fill="url(#paint12_radial_42_260)"/>
<path fill-rule="evenodd" clip-rule="evenodd" d="M58.2275 14.3125C59.1659 14.5439 59.739 15.4922 59.5076 16.4306L51.6053 48.4775C51.3739 49.4159 50.4256 49.989 49.4872 49.7576C48.5488 49.5262 47.9757 48.5779 48.2071 47.6395L56.1094 15.5927C56.3408 14.6543 57.2891 14.0811 58.2275 14.3125Z" fill="url(#paint13_radial_42_260)"/>
<g filter="url(#filter7_i_42_260)">
<path d="M55.4639 15.1777C55.4639 14.2339 56.229 13.4688 57.1729 13.4688H60.5225C61.4663 13.4688 62.2314 14.2339 62.2314 15.1777C62.2314 16.1216 61.4663 16.8867 60.5225 16.8867H57.1729C56.229 16.8867 55.4639 16.1216 55.4639 15.1777Z" fill="#347CC3"/>
<path d="M55.4639 15.1777C55.4639 14.2339 56.229 13.4688 57.1729 13.4688H60.5225C61.4663 13.4688 62.2314 14.2339 62.2314 15.1777C62.2314 16.1216 61.4663 16.8867 60.5225 16.8867H57.1729C56.229 16.8867 55.4639 16.1216 55.4639 15.1777Z" fill="url(#paint14_linear_42_260)"/>
</g>
<g filter="url(#filter8_f_42_260)">
<path d="M16.1286 23.1758C15.9371 21.9453 17.2196 20.25 18.7946 20.25C20.3696 20.25 43.1124 20.25 54.2868 20.25" stroke="url(#paint15_linear_42_260)" stroke-width="0.4"/>
</g>
<g filter="url(#filter9_f_42_260)">
<path d="M15.6445 26.5391L16.6289 39.3906C16.7565 40.776 17.9742 43.6891 21.8242 44.2578C25.6742 44.8266 39.8529 45.5521 46.3242 46.0625" stroke="url(#paint16_linear_42_260)" stroke-width="0.4"/>
</g>
<g filter="url(#filter10_f_42_260)">
<path d="M57.6992 17.7891L49.9336 48.0859" stroke="#C8C5CD" stroke-width="0.5" stroke-linecap="round"/>
</g>
<g filter="url(#filter11_f_42_260)">
<rect x="57.0156" y="14.6035" width="4.38867" height="0.65625" rx="0.328125" fill="#6B9ADA"/>
</g>
<defs>
<filter id="filter0_ii_42_260" x="14.1523" y="38.6562" width="45.6953" height="16.2984" filterUnits="userSpaceOnUse" color-interpolation-filters="sRGB">
<feFlood flood-opacity="0" result="BackgroundImageFix"/>
<feBlend mode="normal" in="SourceGraphic" in2="BackgroundImageFix" result="shape"/>
<feColorMatrix in="SourceAlpha" type="matrix" values="0 0 0 0 0 0 0 0 0 0 0 0 0 0 0 0 0 0 127 0" result="hardAlpha"/>
<feOffset dy="-0.5"/>
<feGaussianBlur stdDeviation="0.5"/>
<feComposite in2="hardAlpha" operator="arithmetic" k2="-1" k3="1"/>
<feColorMatrix type="matrix" values="0 0 0 0 0.596078 0 0 0 0 0.505882 0 0 0 0 0.682353 0 0 0 1 0"/>
<feBlend mode="normal" in2="shape" result="effect1_innerShadow_42_260"/>
<feColorMatrix in="SourceAlpha" type="matrix" values="0 0 0 0 0 0 0 0 0 0 0 0 0 0 0 0 0 0 127 0" result="hardAlpha"/>
<feOffset dy="0.4"/>
<feGaussianBlur stdDeviation="0.5"/>
<feComposite in2="hardAlpha" operator="arithmetic" k2="-1" k3="1"/>
<feColorMatrix type="matrix" values="0 0 0 0 0.654902 0 0 0 0 0.647059 0 0 0 0 0.666667 0 0 0 1 0"/>
<feBlend mode="normal" in2="effect1_innerShadow_42_260" result="effect2_innerShadow_42_260"/>
</filter>
<filter id="filter1_f_42_260" x="17.3906" y="55.7383" width="4.13672" height="4.13672" filterUnits="userSpaceOnUse" color-interpolation-filters="sRGB">
<feFlood flood-opacity="0" result="BackgroundImageFix"/>
<feBlend mode="normal" in="SourceGraphic" in2="BackgroundImageFix" result="shape"/>
<feGaussianBlur stdDeviation="0.125" result="effect1_foregroundBlur_42_260"/>
</filter>
<filter id="filter2_i_42_260" x="15.084" y="21.1937" width="38.7324" height="24.4094" filterUnits="userSpaceOnUse" color-interpolation-filters="sRGB">
<feFlood flood-opacity="0" result="BackgroundImageFix"/>
<feBlend mode="normal" in="SourceGraphic" in2="BackgroundImageFix" result="shape"/>
<feColorMatrix in="SourceAlpha" type="matrix" values="0 0 0 0 0 0 0 0 0 0 0 0 0 0 0 0 0 0 127 0" result="hardAlpha"/>
<feOffset dy="-0.15"/>
<feGaussianBlur stdDeviation="0.075"/>
<feComposite in2="hardAlpha" operator="arithmetic" k2="-1" k3="1"/>
<feColorMatrix type="matrix" values="0 0 0 0 0.619608 0 0 0 0 0.564706 0 0 0 0 0.67451 0 0 0 1 0"/>
<feBlend mode="normal" in2="shape" result="effect1_innerShadow_42_260"/>
</filter>
<filter id="filter3_f_42_260" x="14.834" y="21.0938" width="39.2324" height="23.3047" filterUnits="userSpaceOnUse" color-interpolation-filters="sRGB">
<feFlood flood-opacity="0" result="BackgroundImageFix"/>
<feBlend mode="normal" in="SourceGraphic" in2="BackgroundImageFix" result="shape"/>
<feGaussianBlur stdDeviation="0.125" result="effect1_foregroundBlur_42_260"/>
</filter>
<filter id="filter4_f_42_260" x="48.6992" y="55.7383" width="4.13672" height="4.13672" filterUnits="userSpaceOnUse" color-interpolation-filters="sRGB">
<feFlood flood-opacity="0" result="BackgroundImageFix"/>
<feBlend mode="normal" in="SourceGraphic" in2="BackgroundImageFix" result="shape"/>
<feGaussianBlur stdDeviation="0.125" result="effect1_foregroundBlur_42_260"/>
</filter>
<filter id="filter5_iii_42_260" x="13.3807" y="18.1801" width="43.885" height="30.3745" filterUnits="userSpaceOnUse" color-interpolation-filters="sRGB">
<feFlood flood-opacity="0" result="BackgroundImageFix"/>
<feBlend mode="normal" in="SourceGraphic" in2="BackgroundImageFix" result="shape"/>
<feColorMatrix in="SourceAlpha" type="matrix" values="0 0 0 0 0 0 0 0 0 0 0 0 0 0 0 0 0 0 127 0" result="hardAlpha"/>
<feOffset dy="-0.5"/>
<feGaussianBlur stdDeviation="0.5"/>
<feComposite in2="hardAlpha" operator="arithmetic" k2="-1" k3="1"/>
<feColorMatrix type="matrix" values="0 0 0 0 0.603922 0 0 0 0 0.568627 0 0 0 0 0.643137 0 0 0 1 0"/>
<feBlend mode="normal" in2="shape" result="effect1_innerShadow_42_260"/>
<feColorMatrix in="SourceAlpha" type="matrix" values="0 0 0 0 0 0 0 0 0 0 0 0 0 0 0 0 0 0 127 0" result="hardAlpha"/>
<feOffset dy="0.25"/>
<feGaussianBlur stdDeviation="0.25"/>
<feComposite in2="hardAlpha" operator="arithmetic" k2="-1" k3="1"/>
<feColorMatrix type="matrix" values="0 0 0 0 0.654902 0 0 0 0 0.654902 0 0 0 0 0.662745 0 0 0 1 0"/>
<feBlend mode="normal" in2="effect1_innerShadow_42_260" result="effect2_innerShadow_42_260"/>
<feColorMatrix in="SourceAlpha" type="matrix" values="0 0 0 0 0 0 0 0 0 0 0 0 0 0 0 0 0 0 127 0" result="hardAlpha"/>
<feOffset dx="0.25"/>
<feGaussianBlur stdDeviation="0.25"/>
<feComposite in2="hardAlpha" operator="arithmetic" k2="-1" k3="1"/>
<feColorMatrix type="matrix" values="0 0 0 0 0.654902 0 0 0 0 0.654902 0 0 0 0 0.662745 0 0 0 1 0"/>
<feBlend mode="normal" in2="effect2_innerShadow_42_260" result="effect3_innerShadow_42_260"/>
</filter>
<filter id="filter6_i_42_260" x="48.1558" y="14.2612" width="12.1532" height="35.5477" filterUnits="userSpaceOnUse" color-interpolation-filters="sRGB">
<feFlood flood-opacity="0" result="BackgroundImageFix"/>
<feBlend mode="normal" in="SourceGraphic" in2="BackgroundImageFix" result="shape"/>
<feColorMatrix in="SourceAlpha" type="matrix" values="0 0 0 0 0 0 0 0 0 0 0 0 0 0 0 0 0 0 127 0" result="hardAlpha"/>
<feOffset dx="0.75"/>
<feGaussianBlur stdDeviation="0.5"/>
<feComposite in2="hardAlpha" operator="arithmetic" k2="-1" k3="1"/>
<feColorMatrix type="matrix" values="0 0 0 0 0.654902 0 0 0 0 0.639216 0 0 0 0 0.670588 0 0 0 1 0"/>
<feBlend mode="normal" in2="shape" result="effect1_innerShadow_42_260"/>
</filter>
<filter id="filter7_i_42_260" x="55.4639" y="13.0687" width="6.76758" height="3.81797" filterUnits="userSpaceOnUse" color-interpolation-filters="sRGB">
<feFlood flood-opacity="0" result="BackgroundImageFix"/>
<feBlend mode="normal" in="SourceGraphic" in2="BackgroundImageFix" result="shape"/>
<feColorMatrix in="SourceAlpha" type="matrix" values="0 0 0 0 0 0 0 0 0 0 0 0 0 0 0 0 0 0 127 0" result="hardAlpha"/>
<feOffset dy="-0.4"/>
<feGaussianBlur stdDeviation="0.375"/>
<feComposite in2="hardAlpha" operator="arithmetic" k2="-1" k3="1"/>
<feColorMatrix type="matrix" values="0 0 0 0 0.27451 0 0 0 0 0.356863 0 0 0 0 0.584314 0 0 0 1 0"/>
<feBlend mode="normal" in2="shape" result="effect1_innerShadow_42_260"/>
</filter>
<filter id="filter8_f_42_260" x="15.5095" y="19.65" width="39.1773" height="3.95649" filterUnits="userSpaceOnUse" color-interpolation-filters="sRGB">
<feFlood flood-opacity="0" result="BackgroundImageFix"/>
<feBlend mode="normal" in="SourceGraphic" in2="BackgroundImageFix" result="shape"/>
<feGaussianBlur stdDeviation="0.2" result="effect1_foregroundBlur_42_260"/>
</filter>
<filter id="filter9_f_42_260" x="15.0451" y="26.1238" width="31.6949" height="20.538" filterUnits="userSpaceOnUse" color-interpolation-filters="sRGB">
<feFlood flood-opacity="0" result="BackgroundImageFix"/>
<feBlend mode="normal" in="SourceGraphic" in2="BackgroundImageFix" result="shape"/>
<feGaussianBlur stdDeviation="0.2" result="effect1_foregroundBlur_42_260"/>
</filter>
<filter id="filter10_f_42_260" x="49.1836" y="17.0391" width="9.26562" height="31.7969" filterUnits="userSpaceOnUse" color-interpolation-filters="sRGB">
<feFlood flood-opacity="0" result="BackgroundImageFix"/>
<feBlend mode="normal" in="SourceGraphic" in2="BackgroundImageFix" result="shape"/>
<feGaussianBlur stdDeviation="0.25" result="effect1_foregroundBlur_42_260"/>
</filter>
<filter id="filter11_f_42_260" x="56.5156" y="14.1035" width="5.38867" height="1.65625" filterUnits="userSpaceOnUse" color-interpolation-filters="sRGB">
<feFlood flood-opacity="0" result="BackgroundImageFix"/>
<feBlend mode="normal" in="SourceGraphic" in2="BackgroundImageFix" result="shape"/>
<feGaussianBlur stdDeviation="0.25" result="effect1_foregroundBlur_42_260"/>
</filter>
<radialGradient id="paint0_radial_42_260" cx="0" cy="0" r="1" gradientUnits="userSpaceOnUse" gradientTransform="translate(20.9492 56.6719) rotate(116.878) scale(4.4757)">
<stop offset="0.485518" stop-color="#2C55AC" stop-opacity="0"/>
<stop offset="1" stop-color="#2C55AC"/>
</radialGradient>
<radialGradient id="paint1_radial_42_260" cx="0" cy="0" r="1" gradientUnits="userSpaceOnUse" gradientTransform="translate(20.7168 57.3691) rotate(145.421) scale(1.71035 2.42048)">
<stop offset="0.613604" stop-color="#6A99DB"/>
<stop offset="1" stop-color="#6A99DB" stop-opacity="0"/>
</radialGradient>
<radialGradient id="paint2_radial_42_260" cx="0" cy="0" r="1" gradientUnits="userSpaceOnUse" gradientTransform="translate(20.0742 59.0234) rotate(-116.108) scale(4.59806 5.53949)">
<stop offset="0.6568" stop-color="#2F5086" stop-opacity="0"/>
<stop offset="0.890667" stop-color="#2F5086"/>
</radialGradient>
<radialGradient id="paint3_radial_42_260" cx="0" cy="0" r="1" gradientUnits="userSpaceOnUse" gradientTransform="translate(34.4502 31.4609) rotate(90) scale(8.20313 17.2059)">
<stop offset="0.339044" stop-color="#B9B6BC"/>
<stop offset="1" stop-color="#B9B6BC" stop-opacity="0"/>
</radialGradient>
<linearGradient id="paint4_linear_42_260" x1="51.1914" y1="35.5625" x2="43.0977" y2="33.1563" gradientUnits="userSpaceOnUse">
<stop offset="0.239262" stop-color="#807F82"/>
<stop offset="1" stop-color="#807F82" stop-opacity="0"/>
</linearGradient>
<linearGradient id="paint5_linear_42_260" x1="43.0977" y1="19.8672" x2="43.0977" y2="33.1563" gradientUnits="userSpaceOnUse">
<stop offset="0.123457" stop-color="#807F82"/>
<stop offset="0.407407" stop-color="#807F82" stop-opacity="0"/>
</linearGradient>
<radialGradient id="paint6_radial_42_260" cx="0" cy="0" r="1" gradientUnits="userSpaceOnUse" gradientTransform="translate(34.4502 32.7461) rotate(90) scale(16.8164 29.9619)">
<stop offset="0.405276" stop-color="#C7C4CA"/>
<stop offset="1" stop-color="#C7C4CA" stop-opacity="0"/>
</radialGradient>
<radialGradient id="paint7_radial_42_260" cx="0" cy="0" r="1" gradientUnits="userSpaceOnUse" gradientTransform="translate(52.2578 56.6719) rotate(116.878) scale(4.4757)">
<stop offset="0.485518" stop-color="#2C55AC" stop-opacity="0"/>
<stop offset="1" stop-color="#2C55AC"/>
</radialGradient>
<radialGradient id="paint8_radial_42_260" cx="0" cy="0" r="1" gradientUnits="userSpaceOnUse" gradientTransform="translate(51.793 56.9727) rotate(130.696) scale(1.80324 2.55193)">
<stop offset="0.420556" stop-color="#6A99DB"/>
<stop offset="1" stop-color="#6A99DB" stop-opacity="0"/>
</radialGradient>
<radialGradient id="paint9_radial_42_260" cx="0" cy="0" r="1" gradientUnits="userSpaceOnUse" gradientTransform="translate(51.3828 59.0234) rotate(-116.108) scale(4.59806 5.53949)">
<stop offset="0.6568" stop-color="#2F5086" stop-opacity="0"/>
<stop offset="0.890667" stop-color="#2F5086"/>
</radialGradient>
<linearGradient id="paint10_linear_42_260" x1="53.9804" y1="38.2422" x2="46.3242" y2="36.4922" gradientUnits="userSpaceOnUse">
<stop offset="0.213508" stop-color="#9A979D"/>
<stop offset="1" stop-color="#9A979D" stop-opacity="0"/>
</linearGradient>
<radialGradient id="paint11_radial_42_260" cx="0" cy="0" r="1" gradientUnits="userSpaceOnUse" gradientTransform="translate(57.0156 18.9922) rotate(-180) scale(6.86328 2.81571)">
<stop stop-color="#969698"/>
<stop offset="1" stop-color="#969698" stop-opacity="0"/>
</radialGradient>
<radialGradient id="paint12_radial_42_260" cx="0" cy="0" r="1" gradientUnits="userSpaceOnUse" gradientTransform="translate(52.0117 38.789) rotate(-75.9313) scale(23.3971 11.4582)">
<stop offset="0.891128" stop-color="#9E9AA6" stop-opacity="0"/>
<stop offset="0.979005" stop-color="#9E9AA6"/>
</radialGradient>
<radialGradient id="paint13_radial_42_260" cx="0" cy="0" r="1" gradientUnits="userSpaceOnUse" gradientTransform="translate(56.9335 18.8828) rotate(104.096) scale(31.8862 10.2286)">
<stop offset="0.950067" stop-color="#AFAAB3" stop-opacity="0"/>
<stop offset="1" stop-color="#92889E"/>
</radialGradient>
<linearGradient id="paint14_linear_42_260" x1="55.4639" y1="15.6563" x2="57.4258" y2="15.6563" gradientUnits="userSpaceOnUse">
<stop stop-color="#386CAA"/>
<stop offset="1" stop-color="#386CAA" stop-opacity="0"/>
</linearGradient>
<linearGradient id="paint15_linear_42_260" x1="16.7383" y1="21.3984" x2="57.043" y2="21.3984" gradientUnits="userSpaceOnUse">
<stop stop-color="#C6C4C9"/>
<stop offset="1" stop-color="#C6C4C9" stop-opacity="0"/>
</linearGradient>
<linearGradient id="paint16_linear_42_260" x1="21.7695" y1="44.0391" x2="26.6367" y2="25.9375" gradientUnits="userSpaceOnUse">
<stop stop-color="#D4D1D7"/>
<stop offset="1" stop-color="#C6C4C9" stop-opacity="0"/>
</linearGradient>
</defs>
</svg>
