<svg width="75" height="71" viewBox="0 0 75 71" fill="none" xmlns="http://www.w3.org/2000/svg">
<rect width="75" height="71" rx="8" fill="#E1DCEB" fill-opacity="0.3"/>
<g filter="url(#filter0_iii_110_1626)">
<path d="M54.2379 12.7168C54.3717 12.5861 54.578 12.5507 54.7226 12.6694C55.0256 12.9182 55.3203 13.3574 55.3203 14.0555V53.5057C55.3203 57.6133 51.9905 60.9432 47.8828 60.9432H22.0156V59.494H20.457V13.701C20.5462 13.1459 20.8387 12.7973 21.115 12.6027C21.2563 12.5032 21.4437 12.54 21.5699 12.6582L23.2019 14.186C23.4752 14.4419 23.9014 14.4374 24.1693 14.1759L25.9931 12.3951C26.1282 12.2632 26.3096 12.1893 26.4983 12.1893C26.6819 12.1893 26.8586 12.2591 26.9926 12.3846L28.9167 14.186C29.19 14.4419 29.6162 14.4374 29.8841 14.1759L31.7079 12.3951C31.843 12.2632 32.0244 12.1893 32.2131 12.1893C32.3967 12.1893 32.5734 12.2591 32.7075 12.3846L34.6316 14.186C34.9049 14.4419 35.3311 14.4374 35.599 14.1759L37.4228 12.3951C37.5579 12.2632 37.7392 12.1893 37.928 12.1893C38.1116 12.1893 38.2883 12.2591 38.4223 12.3846L40.3464 14.186C40.6197 14.4419 41.0459 14.4374 41.3138 14.1759L43.1376 12.3951C43.2727 12.2632 43.4541 12.1893 43.6428 12.1893C43.8264 12.1893 44.0031 12.2591 44.1371 12.3846L46.0612 14.186C46.3346 14.4419 46.7608 14.4374 47.0286 14.1759L48.8524 12.3951C48.9876 12.2632 49.1689 12.1893 49.3577 12.1893C49.5413 12.1893 49.7179 12.2591 49.852 12.3846L51.7761 14.186C52.0494 14.4419 52.4756 14.4374 52.7435 14.1759L54.2379 12.7168Z" fill="url(#paint0_linear_110_1626)"/>
<path d="M54.2379 12.7168C54.3717 12.5861 54.578 12.5507 54.7226 12.6694C55.0256 12.9182 55.3203 13.3574 55.3203 14.0555V53.5057C55.3203 57.6133 51.9905 60.9432 47.8828 60.9432H22.0156V59.494H20.457V13.701C20.5462 13.1459 20.8387 12.7973 21.115 12.6027C21.2563 12.5032 21.4437 12.54 21.5699 12.6582L23.2019 14.186C23.4752 14.4419 23.9014 14.4374 24.1693 14.1759L25.9931 12.3951C26.1282 12.2632 26.3096 12.1893 26.4983 12.1893C26.6819 12.1893 26.8586 12.2591 26.9926 12.3846L28.9167 14.186C29.19 14.4419 29.6162 14.4374 29.8841 14.1759L31.7079 12.3951C31.843 12.2632 32.0244 12.1893 32.2131 12.1893C32.3967 12.1893 32.5734 12.2591 32.7075 12.3846L34.6316 14.186C34.9049 14.4419 35.3311 14.4374 35.599 14.1759L37.4228 12.3951C37.5579 12.2632 37.7392 12.1893 37.928 12.1893C38.1116 12.1893 38.2883 12.2591 38.4223 12.3846L40.3464 14.186C40.6197 14.4419 41.0459 14.4374 41.3138 14.1759L43.1376 12.3951C43.2727 12.2632 43.4541 12.1893 43.6428 12.1893C43.8264 12.1893 44.0031 12.2591 44.1371 12.3846L46.0612 14.186C46.3346 14.4419 46.7608 14.4374 47.0286 14.1759L48.8524 12.3951C48.9876 12.2632 49.1689 12.1893 49.3577 12.1893C49.5413 12.1893 49.7179 12.2591 49.852 12.3846L51.7761 14.186C52.0494 14.4419 52.4756 14.4374 52.7435 14.1759L54.2379 12.7168Z" fill="url(#paint1_radial_110_1626)"/>
</g>
<g filter="url(#filter1_ii_110_1626)">
<path d="M41.6165 53.9979C41.6165 53.0314 40.833 52.2479 39.8665 52.2479H16.9461C15.9856 52.2479 15.207 53.0265 15.207 53.987C15.207 57.8288 18.3215 60.9432 22.1633 60.9432H46.9248C42.7329 60.5709 41.6595 56.4841 41.6165 54.1518V53.9979Z" fill="url(#paint2_linear_110_1626)"/>
<path d="M41.6165 53.9979C41.6165 53.0314 40.833 52.2479 39.8665 52.2479H16.9461C15.9856 52.2479 15.207 53.0265 15.207 53.987C15.207 57.8288 18.3215 60.9432 22.1633 60.9432H46.9248C42.7329 60.5709 41.6595 56.4841 41.6165 54.1518V53.9979Z" fill="url(#paint3_linear_110_1626)"/>
</g>
<rect x="25.707" y="19.1346" width="24.418" height="3.41797" rx="0.976562" fill="#97939D"/>
<rect x="25.707" y="26.08" width="15.6406" height="1.80469" rx="0.902344" fill="#97939D"/>
<rect x="25.707" y="31.2753" width="15.6406" height="1.80469" rx="0.902344" fill="#97939D"/>
<rect x="25.707" y="36.5663" width="15.6406" height="1.80469" rx="0.902344" fill="#97939D"/>
<rect x="25.707" y="41.8573" width="15.6406" height="1.80469" rx="0.902344" fill="#97939D"/>
<rect x="25.707" y="47.1483" width="15.6406" height="1.80469" rx="0.902344" fill="#97929F"/>
<rect x="43.1523" y="31.2753" width="6.97266" height="1.80469" rx="0.902344" fill="#97939D"/>
<rect x="43.1523" y="26.08" width="6.97266" height="1.80469" rx="0.902344" fill="#97939D"/>
<rect x="43.1523" y="36.5663" width="6.97266" height="1.80469" rx="0.902344" fill="#97939D"/>
<rect x="43.1523" y="41.8573" width="6.97266" height="1.80469" rx="0.902344" fill="#97939D"/>
<rect x="43.1523" y="47.1483" width="6.97266" height="1.80469" rx="0.902344" fill="#9893A0"/>
<defs>
<filter id="filter0_iii_110_1626" x="20.307" y="12.0393" width="35.1633" height="48.9039" filterUnits="userSpaceOnUse" color-interpolation-filters="sRGB">
<feFlood flood-opacity="0" result="BackgroundImageFix"/>
<feBlend mode="normal" in="SourceGraphic" in2="BackgroundImageFix" result="shape"/>
<feColorMatrix in="SourceAlpha" type="matrix" values="0 0 0 0 0 0 0 0 0 0 0 0 0 0 0 0 0 0 127 0" result="hardAlpha"/>
<feOffset dx="-0.15" dy="-0.15"/>
<feGaussianBlur stdDeviation="0.175"/>
<feComposite in2="hardAlpha" operator="arithmetic" k2="-1" k3="1"/>
<feColorMatrix type="matrix" values="0 0 0 0 1 0 0 0 0 1 0 0 0 0 1 0 0 0 1 0"/>
<feBlend mode="normal" in2="shape" result="effect1_innerShadow_110_1626"/>
<feColorMatrix in="SourceAlpha" type="matrix" values="0 0 0 0 0 0 0 0 0 0 0 0 0 0 0 0 0 0 127 0" result="hardAlpha"/>
<feOffset dx="-0.15"/>
<feGaussianBlur stdDeviation="0.125"/>
<feComposite in2="hardAlpha" operator="arithmetic" k2="-1" k3="1"/>
<feColorMatrix type="matrix" values="0 0 0 0 1 0 0 0 0 1 0 0 0 0 1 0 0 0 1 0"/>
<feBlend mode="normal" in2="effect1_innerShadow_110_1626" result="effect2_innerShadow_110_1626"/>
<feColorMatrix in="SourceAlpha" type="matrix" values="0 0 0 0 0 0 0 0 0 0 0 0 0 0 0 0 0 0 127 0" result="hardAlpha"/>
<feOffset dx="0.15"/>
<feGaussianBlur stdDeviation="0.175"/>
<feComposite in2="hardAlpha" operator="arithmetic" k2="-1" k3="1"/>
<feColorMatrix type="matrix" values="0 0 0 0 0.733333 0 0 0 0 0.713726 0 0 0 0 0.764706 0 0 0 1 0"/>
<feBlend mode="normal" in2="effect2_innerShadow_110_1626" result="effect3_innerShadow_110_1626"/>
</filter>
<filter id="filter1_ii_110_1626" x="15.057" y="52.2479" width="31.9678" height="8.69531" filterUnits="userSpaceOnUse" color-interpolation-filters="sRGB">
<feFlood flood-opacity="0" result="BackgroundImageFix"/>
<feBlend mode="normal" in="SourceGraphic" in2="BackgroundImageFix" result="shape"/>
<feColorMatrix in="SourceAlpha" type="matrix" values="0 0 0 0 0 0 0 0 0 0 0 0 0 0 0 0 0 0 127 0" result="hardAlpha"/>
<feOffset dx="-0.15"/>
<feGaussianBlur stdDeviation="0.125"/>
<feComposite in2="hardAlpha" operator="arithmetic" k2="-1" k3="1"/>
<feColorMatrix type="matrix" values="0 0 0 0 1 0 0 0 0 1 0 0 0 0 1 0 0 0 1 0"/>
<feBlend mode="normal" in2="shape" result="effect1_innerShadow_110_1626"/>
<feColorMatrix in="SourceAlpha" type="matrix" values="0 0 0 0 0 0 0 0 0 0 0 0 0 0 0 0 0 0 127 0" result="hardAlpha"/>
<feOffset dx="0.1"/>
<feGaussianBlur stdDeviation="0.2"/>
<feComposite in2="hardAlpha" operator="arithmetic" k2="-1" k3="1"/>
<feColorMatrix type="matrix" values="0 0 0 0 0.666667 0 0 0 0 0.6 0 0 0 0 0.74902 0 0 0 1 0"/>
<feBlend mode="normal" in2="effect1_innerShadow_110_1626" result="effect2_innerShadow_110_1626"/>
</filter>
<linearGradient id="paint0_linear_110_1626" x1="23.875" y1="37.7557" x2="55.3203" y2="37.7557" gradientUnits="userSpaceOnUse">
<stop stop-color="#DFD8E8"/>
<stop offset="1" stop-color="#E0DBEA"/>
</linearGradient>
<radialGradient id="paint1_radial_110_1626" cx="0" cy="0" r="1" gradientUnits="userSpaceOnUse" gradientTransform="translate(42.1406 63.4589) rotate(-60.0013) scale(12.2505 19.2088)">
<stop stop-color="#F9F3FE"/>
<stop offset="1" stop-color="#F9F3FE" stop-opacity="0"/>
</radialGradient>
<linearGradient id="paint2_linear_110_1626" x1="31.0659" y1="52.2479" x2="31.0659" y2="60.9432" gradientUnits="userSpaceOnUse">
<stop stop-color="#DCD4E8"/>
<stop offset="1" stop-color="#C9BADD"/>
</linearGradient>
<linearGradient id="paint3_linear_110_1626" x1="35.6875" y1="60.9432" x2="35.6875" y2="56.5956" gradientUnits="userSpaceOnUse">
<stop stop-color="#A58BC5"/>
<stop offset="1" stop-color="#C7B7DD" stop-opacity="0"/>
</linearGradient>
</defs>
</svg>
