<svg width="75" height="71" viewBox="0 0 75 71" fill="none" xmlns="http://www.w3.org/2000/svg">
<rect width="75" height="71" rx="8" fill="#F6F4F9"/>
<path d="M37.2193 23.75H61.4825V34.25H33.4825L36.2206 24.52C36.3411 24.065 36.7544 23.75 37.2193 23.75Z" fill="url(#paint0_linear_111_3412)"/>
<path d="M37.2193 23.75H61.4825V34.25H33.4825L36.2206 24.52C36.3411 24.065 36.7544 23.75 37.2193 23.75Z" fill="url(#paint1_linear_111_3412)"/>
<path d="M37.2193 23.75H61.4825V34.25H33.4825L36.2206 24.52C36.3411 24.065 36.7544 23.75 37.2193 23.75Z" fill="url(#paint2_linear_111_3412)"/>
<path d="M37.2193 23.75H61.4825V34.25H33.4825L36.2206 24.52C36.3411 24.065 36.7544 23.75 37.2193 23.75Z" fill="url(#paint3_linear_111_3412)"/>
<g filter="url(#filter0_i_111_3412)">
<path d="M47.4824 29C47.4824 27.25 47.4824 30.75 47.4824 29C47.4824 27.25 46.6774 27.25 45.7324 27.25H35.4498L34.4739 30.75H45.7324C46.6774 30.7325 47.4824 30.75 47.4824 29Z" fill="#56E6FF"/>
</g>
<path d="M61.4825 36H14.6052C13.4241 36 12.578 37.1232 12.8953 38.2464L15.9825 48.25H61.4825V36Z" fill="url(#paint4_linear_111_3412)"/>
<path d="M61.4825 36H14.6052C13.4241 36 12.578 37.1232 12.8953 38.2464L15.9825 48.25H61.4825V36Z" fill="url(#paint5_linear_111_3412)"/>
<path d="M61.4825 36H14.6052C13.4241 36 12.578 37.1232 12.8953 38.2464L15.9825 48.25H61.4825V36Z" fill="url(#paint6_linear_111_3412)"/>
<path d="M15.9825 48.25L19.1343 59.228C19.3432 59.9772 20.0398 60.5 20.8233 60.5H59.7238C60.699 60.5 61.4825 59.7159 61.4825 58.7575V48.25H15.9825Z" fill="url(#paint7_linear_111_3412)"/>
<path d="M15.9825 48.25L19.1343 59.228C19.3432 59.9772 20.0398 60.5 20.8233 60.5H59.7238C60.699 60.5 61.4825 59.7159 61.4825 58.7575V48.25H15.9825Z" fill="url(#paint8_linear_111_3412)"/>
<path d="M61.4825 36H17.7325V35.2753C17.7325 34.7096 18.1875 34.25 18.7475 34.25H61.4825V36Z" fill="url(#paint9_linear_111_3412)"/>
<path d="M61.4825 36H17.7325V35.2753C17.7325 34.7096 18.1875 34.25 18.7475 34.25H61.4825V36Z" fill="url(#paint10_linear_111_3412)"/>
<g filter="url(#filter1_ii_111_3412)">
<path d="M61.5 56.4399C58.4375 56.4399 58.4375 58.3999 55.3575 58.3999C52.295 58.3999 52.295 56.4399 49.215 56.4399C46.1525 56.4399 46.1525 58.3999 43.09 58.3999C40.0275 58.3999 40.0275 56.4399 36.965 56.4399C33.9025 56.4399 33.9025 58.3999 30.84 58.3999C27.7775 58.3999 27.7775 56.4399 24.715 56.4399C21.6525 56.4399 21.6525 58.3999 18.6075 58.3999C15.545 58.3999 15.545 56.4399 12.4825 56.4399V60.4999H61.4826L61.5 56.4399Z" fill="url(#paint11_linear_111_3412)"/>
</g>
<path d="M56.2157 15.7211C56.2157 15.3166 55.896 15 55.5258 15H51.4474C50.4209 15 49.6017 15.5058 48.9402 16.4774L47.4825 18.5H56.2325V15.7211H56.2157Z" fill="url(#paint12_linear_111_3412)"/>
<path d="M56.2157 15.7211C56.2157 15.3166 55.896 15 55.5258 15H51.4474C50.4209 15 49.6017 15.5058 48.9402 16.4774L47.4825 18.5H56.2325V15.7211H56.2157Z" fill="url(#paint13_linear_111_3412)"/>
<path d="M47.4825 18.5L43.9825 23.75H56.2325V18.5H47.4825Z" fill="url(#paint14_linear_111_3412)"/>
<path d="M47.4825 18.5L43.9825 23.75H56.2325V18.5H47.4825Z" fill="#E1D9E7"/>
<path d="M47.4825 18.5L43.9825 23.75H56.2325V18.5H47.4825Z" fill="url(#paint15_linear_111_3412)"/>
<path d="M47.4825 18.5L43.9825 23.75H56.2325V18.5H47.4825Z" fill="url(#paint16_linear_111_3412)"/>
<g filter="url(#filter2_i_111_3412)">
<rect x="33.045" y="40.7578" width="3.5" height="3.5" rx="0.5" fill="#63FAFF"/>
</g>
<g filter="url(#filter3_i_111_3412)">
<rect x="40.045" y="40.7578" width="3.5" height="3.5" rx="0.5" fill="#63FAFF"/>
</g>
<g filter="url(#filter4_i_111_3412)">
<rect x="47.045" y="40.7578" width="3.5" height="3.5" rx="0.5" fill="#63FAFF"/>
</g>
<g filter="url(#filter5_i_111_3412)">
<rect x="54.045" y="40.7578" width="3.5" height="3.5" rx="0.5" fill="#63FAFF"/>
</g>
<g filter="url(#filter6_i_111_3412)">
<rect x="50.545" y="27.25" width="3.5" height="3.5" rx="0.5" fill="#63FAFF"/>
</g>
<defs>
<filter id="filter0_i_111_3412" x="33.8739" y="27.25" width="13.6085" height="3.8" filterUnits="userSpaceOnUse" color-interpolation-filters="sRGB">
<feFlood flood-opacity="0" result="BackgroundImageFix"/>
<feBlend mode="normal" in="SourceGraphic" in2="BackgroundImageFix" result="shape"/>
<feColorMatrix in="SourceAlpha" type="matrix" values="0 0 0 0 0 0 0 0 0 0 0 0 0 0 0 0 0 0 127 0" result="hardAlpha"/>
<feOffset dx="-0.6" dy="0.3"/>
<feGaussianBlur stdDeviation="0.4"/>
<feComposite in2="hardAlpha" operator="arithmetic" k2="-1" k3="1"/>
<feColorMatrix type="matrix" values="0 0 0 0 0 0 0 0 0 0.623529 0 0 0 0 0.894118 0 0 0 1 0"/>
<feBlend mode="normal" in2="shape" result="effect1_innerShadow_111_3412"/>
</filter>
<filter id="filter1_ii_111_3412" x="11.8825" y="56.4399" width="49.6175" height="4.66006" filterUnits="userSpaceOnUse" color-interpolation-filters="sRGB">
<feFlood flood-opacity="0" result="BackgroundImageFix"/>
<feBlend mode="normal" in="SourceGraphic" in2="BackgroundImageFix" result="shape"/>
<feColorMatrix in="SourceAlpha" type="matrix" values="0 0 0 0 0 0 0 0 0 0 0 0 0 0 0 0 0 0 127 0" result="hardAlpha"/>
<feOffset dx="-0.6" dy="0.6"/>
<feGaussianBlur stdDeviation="0.3"/>
<feComposite in2="hardAlpha" operator="arithmetic" k2="-1" k3="1"/>
<feColorMatrix type="matrix" values="0 0 0 0 0.384314 0 0 0 0 0.67451 0 0 0 0 0.996078 0 0 0 1 0"/>
<feBlend mode="normal" in2="shape" result="effect1_innerShadow_111_3412"/>
<feColorMatrix in="SourceAlpha" type="matrix" values="0 0 0 0 0 0 0 0 0 0 0 0 0 0 0 0 0 0 127 0" result="hardAlpha"/>
<feOffset dy="0.4"/>
<feGaussianBlur stdDeviation="0.2"/>
<feComposite in2="hardAlpha" operator="arithmetic" k2="-1" k3="1"/>
<feColorMatrix type="matrix" values="0 0 0 0 0.305882 0 0 0 0 0.556863 0 0 0 0 0.882353 0 0 0 1 0"/>
<feBlend mode="normal" in2="effect1_innerShadow_111_3412" result="effect2_innerShadow_111_3412"/>
</filter>
<filter id="filter2_i_111_3412" x="32.445" y="40.7578" width="4.1" height="3.9" filterUnits="userSpaceOnUse" color-interpolation-filters="sRGB">
<feFlood flood-opacity="0" result="BackgroundImageFix"/>
<feBlend mode="normal" in="SourceGraphic" in2="BackgroundImageFix" result="shape"/>
<feColorMatrix in="SourceAlpha" type="matrix" values="0 0 0 0 0 0 0 0 0 0 0 0 0 0 0 0 0 0 127 0" result="hardAlpha"/>
<feOffset dx="-0.6" dy="0.4"/>
<feGaussianBlur stdDeviation="0.5"/>
<feComposite in2="hardAlpha" operator="arithmetic" k2="-1" k3="1"/>
<feColorMatrix type="matrix" values="0 0 0 0 0 0 0 0 0 0.698039 0 0 0 0 0.964706 0 0 0 1 0"/>
<feBlend mode="normal" in2="shape" result="effect1_innerShadow_111_3412"/>
</filter>
<filter id="filter3_i_111_3412" x="39.445" y="40.7578" width="4.1" height="3.9" filterUnits="userSpaceOnUse" color-interpolation-filters="sRGB">
<feFlood flood-opacity="0" result="BackgroundImageFix"/>
<feBlend mode="normal" in="SourceGraphic" in2="BackgroundImageFix" result="shape"/>
<feColorMatrix in="SourceAlpha" type="matrix" values="0 0 0 0 0 0 0 0 0 0 0 0 0 0 0 0 0 0 127 0" result="hardAlpha"/>
<feOffset dx="-0.6" dy="0.4"/>
<feGaussianBlur stdDeviation="0.5"/>
<feComposite in2="hardAlpha" operator="arithmetic" k2="-1" k3="1"/>
<feColorMatrix type="matrix" values="0 0 0 0 0 0 0 0 0 0.698039 0 0 0 0 0.964706 0 0 0 1 0"/>
<feBlend mode="normal" in2="shape" result="effect1_innerShadow_111_3412"/>
</filter>
<filter id="filter4_i_111_3412" x="46.445" y="40.7578" width="4.1" height="3.9" filterUnits="userSpaceOnUse" color-interpolation-filters="sRGB">
<feFlood flood-opacity="0" result="BackgroundImageFix"/>
<feBlend mode="normal" in="SourceGraphic" in2="BackgroundImageFix" result="shape"/>
<feColorMatrix in="SourceAlpha" type="matrix" values="0 0 0 0 0 0 0 0 0 0 0 0 0 0 0 0 0 0 127 0" result="hardAlpha"/>
<feOffset dx="-0.6" dy="0.4"/>
<feGaussianBlur stdDeviation="0.5"/>
<feComposite in2="hardAlpha" operator="arithmetic" k2="-1" k3="1"/>
<feColorMatrix type="matrix" values="0 0 0 0 0 0 0 0 0 0.698039 0 0 0 0 0.964706 0 0 0 1 0"/>
<feBlend mode="normal" in2="shape" result="effect1_innerShadow_111_3412"/>
</filter>
<filter id="filter5_i_111_3412" x="53.445" y="40.7578" width="4.1" height="3.9" filterUnits="userSpaceOnUse" color-interpolation-filters="sRGB">
<feFlood flood-opacity="0" result="BackgroundImageFix"/>
<feBlend mode="normal" in="SourceGraphic" in2="BackgroundImageFix" result="shape"/>
<feColorMatrix in="SourceAlpha" type="matrix" values="0 0 0 0 0 0 0 0 0 0 0 0 0 0 0 0 0 0 127 0" result="hardAlpha"/>
<feOffset dx="-0.6" dy="0.4"/>
<feGaussianBlur stdDeviation="0.5"/>
<feComposite in2="hardAlpha" operator="arithmetic" k2="-1" k3="1"/>
<feColorMatrix type="matrix" values="0 0 0 0 0 0 0 0 0 0.698039 0 0 0 0 0.964706 0 0 0 1 0"/>
<feBlend mode="normal" in2="shape" result="effect1_innerShadow_111_3412"/>
</filter>
<filter id="filter6_i_111_3412" x="49.945" y="27.25" width="4.1" height="4.1" filterUnits="userSpaceOnUse" color-interpolation-filters="sRGB">
<feFlood flood-opacity="0" result="BackgroundImageFix"/>
<feBlend mode="normal" in="SourceGraphic" in2="BackgroundImageFix" result="shape"/>
<feColorMatrix in="SourceAlpha" type="matrix" values="0 0 0 0 0 0 0 0 0 0 0 0 0 0 0 0 0 0 127 0" result="hardAlpha"/>
<feOffset dx="-0.6" dy="0.6"/>
<feGaussianBlur stdDeviation="0.5"/>
<feComposite in2="hardAlpha" operator="arithmetic" k2="-1" k3="1"/>
<feColorMatrix type="matrix" values="0 0 0 0 0 0 0 0 0 0.607843 0 0 0 0 0.945098 0 0 0 1 0"/>
<feBlend mode="normal" in2="shape" result="effect1_innerShadow_111_3412"/>
</filter>
<linearGradient id="paint0_linear_111_3412" x1="58.8575" y1="62.25" x2="26.1197" y2="53.7033" gradientUnits="userSpaceOnUse">
<stop stop-color="#D3D2D2"/>
<stop offset="0.896686" stop-color="white"/>
<stop offset="0.980595" stop-color="#636363"/>
</linearGradient>
<linearGradient id="paint1_linear_111_3412" x1="35.4903" y1="30.7117" x2="61.4825" y2="30.7117" gradientUnits="userSpaceOnUse">
<stop stop-color="#E3DBE9"/>
<stop offset="1" stop-color="#E6DDED"/>
</linearGradient>
<linearGradient id="paint2_linear_111_3412" x1="47.4825" y1="23.75" x2="47.4825" y2="24.6231" gradientUnits="userSpaceOnUse">
<stop stop-color="#F0EBF3"/>
<stop offset="1" stop-color="#F0EBF3" stop-opacity="0"/>
</linearGradient>
<linearGradient id="paint3_linear_111_3412" x1="34.4952" y1="30.5719" x2="35.1651" y2="30.7634" gradientUnits="userSpaceOnUse">
<stop offset="0.0985728" stop-color="#A49FA7"/>
<stop offset="1" stop-color="#A49FA7" stop-opacity="0"/>
</linearGradient>
<linearGradient id="paint4_linear_111_3412" x1="14.3118" y1="44.5007" x2="61.4825" y2="44.5007" gradientUnits="userSpaceOnUse">
<stop stop-color="#CFC9D9"/>
<stop offset="1" stop-color="#E1D8EA"/>
</linearGradient>
<linearGradient id="paint5_linear_111_3412" x1="37.1553" y1="36" x2="37.1553" y2="38.2322" gradientUnits="userSpaceOnUse">
<stop stop-color="#E7E3EA"/>
<stop offset="1" stop-color="#E7E3EA" stop-opacity="0"/>
</linearGradient>
<linearGradient id="paint6_linear_111_3412" x1="14.9145" y1="45.1034" x2="16.7529" y2="44.5308" gradientUnits="userSpaceOnUse">
<stop stop-color="#8E8B9C"/>
<stop offset="1" stop-color="#8E8B9C" stop-opacity="0"/>
</linearGradient>
<linearGradient id="paint7_linear_111_3412" x1="36.7338" y1="48.25" x2="36.7338" y2="60.5" gradientUnits="userSpaceOnUse">
<stop stop-color="#FB4659"/>
<stop offset="1" stop-color="#DF4375"/>
</linearGradient>
<linearGradient id="paint8_linear_111_3412" x1="18.2899" y1="54.9884" x2="19.7968" y2="54.5966" gradientUnits="userSpaceOnUse">
<stop stop-color="#883757"/>
<stop offset="1" stop-color="#883757" stop-opacity="0"/>
</linearGradient>
<linearGradient id="paint9_linear_111_3412" x1="24.3173" y1="35.125" x2="54.816" y2="35.125" gradientUnits="userSpaceOnUse">
<stop stop-color="#58525B"/>
<stop offset="1" stop-color="#725D87"/>
</linearGradient>
<linearGradient id="paint10_linear_111_3412" x1="17.7325" y1="36" x2="19.3436" y2="36" gradientUnits="userSpaceOnUse">
<stop stop-color="#3D3940"/>
<stop offset="1" stop-color="#3D3940" stop-opacity="0"/>
</linearGradient>
<linearGradient id="paint11_linear_111_3412" x1="41.9687" y1="61.0074" x2="41.9687" y2="57.2188" gradientUnits="userSpaceOnUse">
<stop stop-color="#4F96F2"/>
<stop offset="1" stop-color="#5092EB"/>
</linearGradient>
<linearGradient id="paint12_linear_111_3412" x1="56.2325" y1="17.4062" x2="47.1544" y2="17.4062" gradientUnits="userSpaceOnUse">
<stop stop-color="#6D5882"/>
<stop offset="1" stop-color="#484050"/>
</linearGradient>
<linearGradient id="paint13_linear_111_3412" x1="56.2325" y1="17.5703" x2="55.3575" y2="17.5703" gradientUnits="userSpaceOnUse">
<stop stop-color="#836E98"/>
<stop offset="1" stop-color="#836E98" stop-opacity="0"/>
</linearGradient>
<linearGradient id="paint14_linear_111_3412" x1="49.2325" y1="39.5" x2="37.0645" y2="31.9726" gradientUnits="userSpaceOnUse">
<stop stop-color="#D3D2D2"/>
<stop offset="0.833497" stop-color="white"/>
<stop offset="1" stop-color="#636363"/>
</linearGradient>
<linearGradient id="paint15_linear_111_3412" x1="45.7804" y1="21.0634" x2="46.2794" y2="21.4052" gradientUnits="userSpaceOnUse">
<stop stop-color="#B5B1B8"/>
<stop offset="1" stop-color="#B5B1B8" stop-opacity="0"/>
</linearGradient>
<linearGradient id="paint16_linear_111_3412" x1="56.2325" y1="22.5468" x2="55.3029" y2="22.5468" gradientUnits="userSpaceOnUse">
<stop stop-color="#FBF8FE"/>
<stop offset="1" stop-color="#FBF8FE" stop-opacity="0"/>
</linearGradient>
</defs>
</svg>
